<svg id="Ebene_1" data-name="Ebene 1" xmlns="http://www.w3.org/2000/svg" viewBox="0 0 132.99076 132.99076"><defs><style>.cls-1{fill:#662e8c;}.cls-2{fill:#fff;stroke:#000;}</style></defs><title>KYD</title><circle class="cls-1" cx="66.49538" cy="66.49538" r="66.49538"/><path d="M49.64675,83.26735a12.93412,12.93412,0,0,1-3.33936.38575q-4.21215,0-5.291-2.51758Q38.447,83.8074,33.157,83.80739a7.76773,7.76773,0,0,1-4.64892-1.31054,4.46623,4.46623,0,0,1-1.82373-3.87793,6.11221,6.11221,0,0,1,2.67138-5.31641q2.67042-1.875,9.34912-2.64551l2.05469-.25683V67.88259q0-4.46923-.66748-6.00977a2.59751,2.59751,0,0,0-2.64551-1.541,3.987,3.987,0,0,0-2.543.53906,1.244,1.244,0,0,0-.41114,1.23242q.15455.69434.51367,1.82422a6.335,6.335,0,0,1,.35987,1.79785,3.77117,3.77117,0,0,1-3.77588,3.80078,3.71859,3.71859,0,0,1-2.69678-1.10449A3.62278,3.62278,0,0,1,27.763,65.72536a5.41208,5.41208,0,0,1,2.69727-4.49511q2.69677-1.875,8.06494-1.875,5.36718,0,7.65381,2.10644,2.28514,2.10645,2.28613,7.44824V78.157q0,2.72315.668,3.416.6665.69286,2.46533.28223v.51367A4.5,4.5,0,0,1,49.64675,83.26735ZM35.263,80.59646a4.00288,4.00288,0,0,0,2.74854,1.05371,3.42,3.42,0,0,0,2.748-1.542V71.37575l-1.84912.25684a6.329,6.329,0,0,0-3.82715,1.79785,5.08951,5.08951,0,0,0-1.2583,4.16113A4.67,4.67,0,0,0,35.263,80.59646Z"/><path d="M64.38942,84.01247a9.466,9.466,0,0,1-7.19189-3.28711q-3.0315-3.2871-3.03076-9.29785,0-6.01026,2.97949-9.40137a9.29454,9.29454,0,0,1,7.24316-3.38964,9.15082,9.15082,0,0,1,3.95557.873,5.38283,5.38283,0,0,1,2.6709,2.62012v-12.124H68.44753V48.97829H78.72146V82.36892h2.56836v1.02734H71.01589V81.033Q69.62941,84.01393,64.38942,84.01247Zm6.62647-11.86621V63.67067q-1.38648-2.7744-3.62158-2.77441-2.23463,0-3.82666,2.56836-1.593,2.56933-1.59278,8.14258,0,5.57373,1.64405,8.1416,1.64355,2.56934,3.95556,2.209a3.67264,3.67264,0,0,0,1.95166-.82226Q71.0159,79.69851,71.01589,72.14626Z"/><path d="M94.5945,84.01247a9.466,9.466,0,0,1-7.19189-3.28711q-3.0315-3.2871-3.03076-9.29785,0-6.01026,2.97949-9.40137A9.29454,9.29454,0,0,1,94.5945,58.6365a9.15082,9.15082,0,0,1,3.95557.873,5.38283,5.38283,0,0,1,2.6709,2.62012v-12.124H98.65261V48.97829h10.27392V82.36892h2.56836v1.02734H101.221V81.033Q99.83449,84.01393,94.5945,84.01247ZM101.221,72.14626V63.67067q-1.38648-2.7744-3.62158-2.77441-2.23462,0-3.82666,2.56836Q92.1797,66.034,92.18,71.6072q0,5.57373,1.644,8.1416,1.64355,2.56934,3.95556,2.209a3.67264,3.67264,0,0,0,1.95166-.82226Q101.221,79.69851,101.221,72.14626Z"/><path class="cls-2" d="M46.05251,80.90505a12.93456,12.93456,0,0,1-3.33935.38574q-4.21216,0-5.291-2.51758-2.56934,2.67188-7.85938,2.67188a7.76768,7.76768,0,0,1-4.64892-1.31055,4.46622,4.46622,0,0,1-1.82373-3.87793,6.11221,6.11221,0,0,1,2.67139-5.3164q2.6704-1.875,9.34912-2.64551l2.05468-.25684V65.52028q0-4.46923-.66748-6.00976a2.59749,2.59749,0,0,0-2.6455-1.541,3.98693,3.98693,0,0,0-2.543.53907,1.244,1.244,0,0,0-.41114,1.23242q.15454.69434.51368,1.82422a6.33524,6.33524,0,0,1,.35986,1.79785,3.77117,3.77117,0,0,1-3.77588,3.80078,3.71863,3.71863,0,0,1-2.69678-1.10449,3.62283,3.62283,0,0,1-1.13037-2.69629A5.41213,5.41213,0,0,1,26.866,58.86794q2.69677-1.875,8.06494-1.875,5.36718,0,7.65381,2.10645,2.28515,2.10644,2.28613,7.44824V75.7947q0,2.72314.668,3.416.6665.69288,2.46533.28223v.51367A4.49991,4.49991,0,0,1,46.05251,80.90505Zm-14.38379-2.6709a4.00286,4.00286,0,0,0,2.74854,1.05371,3.42,3.42,0,0,0,2.748-1.542V69.01345l-1.84912.25683A6.32892,6.32892,0,0,0,31.489,71.06814a5.08954,5.08954,0,0,0-1.2583,4.16113A4.67,4.67,0,0,0,31.66872,78.23415Z"/><path class="cls-2" d="M60.79519,81.65017a9.46609,9.46609,0,0,1-7.1919-3.28711q-3.03149-3.28712-3.03076-9.29785,0-6.01026,2.97949-9.40137a9.29453,9.29453,0,0,1,7.24317-3.38965,9.15079,9.15079,0,0,1,3.95556.873,5.38281,5.38281,0,0,1,2.6709,2.62011v-12.124H64.85329V46.616H75.12722V80.00661h2.56836V81.034H67.42165V78.67067Q66.03518,81.65164,60.79519,81.65017ZM67.42165,69.784V61.30837Q66.03518,58.534,63.80007,58.534q-2.23463,0-3.82666,2.56836-1.593,2.56934-1.59277,8.14257,0,5.57373,1.644,8.14161,1.64355,2.56934,3.95557,2.209a3.67272,3.67272,0,0,0,1.95166-.82227Q67.42165,77.33621,67.42165,69.784Z"/><path class="cls-2" d="M91.00026,81.65017a9.46609,9.46609,0,0,1-7.19189-3.28711q-3.0315-3.28712-3.03076-9.29785,0-6.01026,2.97949-9.40137a9.29452,9.29452,0,0,1,7.24316-3.38965,9.15083,9.15083,0,0,1,3.95557.873,5.38281,5.38281,0,0,1,2.6709,2.62011v-12.124H95.05837V46.616H105.3323V80.00661h2.56836V81.034H97.62673V78.67067Q96.24025,81.65164,91.00026,81.65017ZM97.62673,69.784V61.30837Q96.24025,58.534,94.00515,58.534q-2.23463,0-3.82666,2.56836-1.593,2.56934-1.59278,8.14257,0,5.57373,1.644,8.14161,1.64355,2.56934,3.95556,2.209a3.67265,3.67265,0,0,0,1.95166-.82227Q97.62674,77.33621,97.62673,69.784Z"/></svg>