<svg id="Ebene_1" data-name="Ebene 1" xmlns="http://www.w3.org/2000/svg" viewBox="0 0 124.0332 124.0332"><defs><style>.cls-1{fill:#662e8c;}.cls-2{fill:#010101;stroke-width:0.00392px;}.cls-10,.cls-100,.cls-101,.cls-102,.cls-103,.cls-104,.cls-105,.cls-106,.cls-107,.cls-108,.cls-109,.cls-11,.cls-110,.cls-111,.cls-112,.cls-113,.cls-114,.cls-115,.cls-116,.cls-117,.cls-118,.cls-119,.cls-12,.cls-120,.cls-121,.cls-122,.cls-123,.cls-124,.cls-125,.cls-126,.cls-127,.cls-128,.cls-129,.cls-13,.cls-130,.cls-131,.cls-132,.cls-133,.cls-134,.cls-135,.cls-136,.cls-137,.cls-138,.cls-139,.cls-14,.cls-140,.cls-141,.cls-142,.cls-143,.cls-144,.cls-145,.cls-146,.cls-147,.cls-148,.cls-149,.cls-15,.cls-150,.cls-151,.cls-152,.cls-153,.cls-154,.cls-155,.cls-156,.cls-157,.cls-158,.cls-159,.cls-16,.cls-160,.cls-161,.cls-162,.cls-163,.cls-164,.cls-165,.cls-166,.cls-167,.cls-168,.cls-169,.cls-17,.cls-170,.cls-171,.cls-172,.cls-173,.cls-174,.cls-175,.cls-176,.cls-177,.cls-178,.cls-179,.cls-18,.cls-180,.cls-181,.cls-182,.cls-183,.cls-184,.cls-185,.cls-186,.cls-187,.cls-188,.cls-189,.cls-19,.cls-190,.cls-191,.cls-192,.cls-193,.cls-194,.cls-195,.cls-196,.cls-197,.cls-198,.cls-199,.cls-2,.cls-20,.cls-200,.cls-201,.cls-202,.cls-203,.cls-204,.cls-205,.cls-206,.cls-207,.cls-208,.cls-209,.cls-21,.cls-210,.cls-211,.cls-212,.cls-213,.cls-214,.cls-215,.cls-216,.cls-217,.cls-218,.cls-219,.cls-22,.cls-220,.cls-221,.cls-222,.cls-223,.cls-224,.cls-225,.cls-226,.cls-227,.cls-228,.cls-229,.cls-23,.cls-230,.cls-231,.cls-232,.cls-233,.cls-234,.cls-235,.cls-236,.cls-237,.cls-238,.cls-239,.cls-24,.cls-240,.cls-241,.cls-242,.cls-243,.cls-244,.cls-245,.cls-246,.cls-247,.cls-248,.cls-249,.cls-25,.cls-250,.cls-251,.cls-252,.cls-253,.cls-254,.cls-255,.cls-256,.cls-26,.cls-27,.cls-28,.cls-29,.cls-3,.cls-30,.cls-31,.cls-32,.cls-33,.cls-34,.cls-35,.cls-36,.cls-37,.cls-38,.cls-39,.cls-4,.cls-40,.cls-41,.cls-42,.cls-43,.cls-44,.cls-45,.cls-46,.cls-47,.cls-48,.cls-49,.cls-5,.cls-50,.cls-51,.cls-52,.cls-53,.cls-54,.cls-55,.cls-56,.cls-57,.cls-58,.cls-59,.cls-6,.cls-60,.cls-61,.cls-62,.cls-63,.cls-64,.cls-65,.cls-66,.cls-67,.cls-68,.cls-69,.cls-7,.cls-70,.cls-71,.cls-72,.cls-73,.cls-74,.cls-75,.cls-76,.cls-77,.cls-78,.cls-79,.cls-8,.cls-80,.cls-81,.cls-82,.cls-83,.cls-84,.cls-85,.cls-86,.cls-87,.cls-88,.cls-89,.cls-9,.cls-90,.cls-91,.cls-92,.cls-93,.cls-94,.cls-95,.cls-96,.cls-97,.cls-98,.cls-99{stroke:#000;stroke-miterlimit:10;}.cls-3{fill:#020202;stroke-width:0.00784px;}.cls-4{fill:#030303;stroke-width:0.01176px;}.cls-5{fill:#040404;stroke-width:0.01569px;}.cls-6{fill:#050505;stroke-width:0.01961px;}.cls-7{fill:#060606;stroke-width:0.02353px;}.cls-8{fill:#070707;stroke-width:0.02745px;}.cls-9{fill:#080808;stroke-width:0.03137px;}.cls-10{fill:#090909;stroke-width:0.03529px;}.cls-11{fill:#0a0a0a;stroke-width:0.03922px;}.cls-12{fill:#0b0b0b;stroke-width:0.04314px;}.cls-13{fill:#0c0c0c;stroke-width:0.04706px;}.cls-14{fill:#0d0d0d;stroke-width:0.05098px;}.cls-15{fill:#0e0e0e;stroke-width:0.0549px;}.cls-16{fill:#0f0f0f;stroke-width:0.05882px;}.cls-17{fill:#101010;stroke-width:0.06275px;}.cls-18{fill:#111;stroke-width:0.06667px;}.cls-19{fill:#121212;stroke-width:0.07059px;}.cls-20{fill:#131313;stroke-width:0.07451px;}.cls-21{fill:#141414;stroke-width:0.07843px;}.cls-22{fill:#151515;stroke-width:0.08235px;}.cls-23{fill:#161616;stroke-width:0.08627px;}.cls-24{fill:#171717;stroke-width:0.0902px;}.cls-25{fill:#181818;stroke-width:0.09412px;}.cls-26{fill:#191919;stroke-width:0.09804px;}.cls-27{fill:#1a1a1a;stroke-width:0.10196px;}.cls-28{fill:#1b1b1b;stroke-width:0.10588px;}.cls-29{fill:#1c1c1c;stroke-width:0.1098px;}.cls-30{fill:#1d1d1d;stroke-width:0.11373px;}.cls-31{fill:#1e1e1e;stroke-width:0.11765px;}.cls-32{fill:#1f1f1f;stroke-width:0.12157px;}.cls-33{fill:#202020;stroke-width:0.12549px;}.cls-34{fill:#212121;stroke-width:0.12941px;}.cls-35{fill:#222;stroke-width:0.13333px;}.cls-36{fill:#232323;stroke-width:0.13725px;}.cls-37{fill:#242424;stroke-width:0.14118px;}.cls-38{fill:#252525;stroke-width:0.1451px;}.cls-39{fill:#262626;stroke-width:0.14902px;}.cls-40{fill:#272727;stroke-width:0.15294px;}.cls-41{fill:#282828;stroke-width:0.15686px;}.cls-42{fill:#292929;stroke-width:0.16078px;}.cls-43{fill:#2a2a2a;stroke-width:0.16471px;}.cls-44{fill:#2b2b2b;stroke-width:0.16863px;}.cls-45{fill:#2c2c2c;stroke-width:0.17255px;}.cls-46{fill:#2d2d2d;stroke-width:0.17647px;}.cls-47{fill:#2e2e2e;stroke-width:0.18039px;}.cls-48{fill:#2f2f2f;stroke-width:0.18431px;}.cls-49{fill:#303030;stroke-width:0.18824px;}.cls-50{fill:#313131;stroke-width:0.19216px;}.cls-51{fill:#323232;stroke-width:0.19608px;}.cls-52{fill:#333;stroke-width:0.2px;}.cls-53{fill:#343434;stroke-width:0.20392px;}.cls-54{fill:#353535;stroke-width:0.20784px;}.cls-55{fill:#363636;stroke-width:0.21176px;}.cls-56{fill:#373737;stroke-width:0.21569px;}.cls-57{fill:#383838;stroke-width:0.21961px;}.cls-58{fill:#393939;stroke-width:0.22353px;}.cls-59{fill:#3a3a3a;stroke-width:0.22745px;}.cls-60{fill:#3b3b3b;stroke-width:0.23137px;}.cls-61{fill:#3c3c3c;stroke-width:0.23529px;}.cls-62{fill:#3d3d3d;stroke-width:0.23922px;}.cls-63{fill:#3e3e3e;stroke-width:0.24314px;}.cls-64{fill:#3f3f3f;stroke-width:0.24706px;}.cls-65{fill:#404040;stroke-width:0.25098px;}.cls-66{fill:#414141;stroke-width:0.2549px;}.cls-67{fill:#424242;stroke-width:0.25882px;}.cls-68{fill:#434343;stroke-width:0.26275px;}.cls-69{fill:#444;stroke-width:0.26667px;}.cls-70{fill:#454545;stroke-width:0.27059px;}.cls-71{fill:#464646;stroke-width:0.27451px;}.cls-72{fill:#474747;stroke-width:0.27843px;}.cls-73{fill:#484848;stroke-width:0.28235px;}.cls-74{fill:#494949;stroke-width:0.28627px;}.cls-75{fill:#4a4a4a;stroke-width:0.2902px;}.cls-76{fill:#4b4b4b;stroke-width:0.29412px;}.cls-77{fill:#4c4c4c;stroke-width:0.29804px;}.cls-78{fill:#4d4d4d;stroke-width:0.30196px;}.cls-79{fill:#4e4e4e;stroke-width:0.30588px;}.cls-80{fill:#4f4f4f;stroke-width:0.3098px;}.cls-81{fill:#505050;stroke-width:0.31373px;}.cls-82{fill:#515151;stroke-width:0.31765px;}.cls-83{fill:#525252;stroke-width:0.32157px;}.cls-84{fill:#535353;stroke-width:0.32549px;}.cls-85{fill:#545454;stroke-width:0.32941px;}.cls-86{fill:#555;stroke-width:0.33333px;}.cls-87{fill:#565656;stroke-width:0.33725px;}.cls-88{fill:#575757;stroke-width:0.34118px;}.cls-89{fill:#585858;stroke-width:0.3451px;}.cls-90{fill:#595959;stroke-width:0.34902px;}.cls-91{fill:#5a5a5a;stroke-width:0.35294px;}.cls-92{fill:#5b5b5b;stroke-width:0.35686px;}.cls-93{fill:#5c5c5c;stroke-width:0.36078px;}.cls-94{fill:#5d5d5d;stroke-width:0.36471px;}.cls-95{fill:#5e5e5e;stroke-width:0.36863px;}.cls-96{fill:#5f5f5f;stroke-width:0.37255px;}.cls-97{fill:#606060;stroke-width:0.37647px;}.cls-98{fill:#616161;stroke-width:0.38039px;}.cls-99{fill:#626262;stroke-width:0.38431px;}.cls-100{fill:#636363;stroke-width:0.38824px;}.cls-101{fill:#646464;stroke-width:0.39216px;}.cls-102{fill:#656565;stroke-width:0.39608px;}.cls-103{fill:#666;stroke-width:0.4px;}.cls-104{fill:#676767;stroke-width:0.40392px;}.cls-105{fill:#686868;stroke-width:0.40784px;}.cls-106{fill:#696969;stroke-width:0.41176px;}.cls-107{fill:#6a6a6a;stroke-width:0.41569px;}.cls-108{fill:#6b6b6b;stroke-width:0.41961px;}.cls-109{fill:#6c6c6c;stroke-width:0.42353px;}.cls-110{fill:#6d6d6d;stroke-width:0.42745px;}.cls-111{fill:#6e6e6e;stroke-width:0.43137px;}.cls-112{fill:#6f6f6f;stroke-width:0.43529px;}.cls-113{fill:#707070;stroke-width:0.43922px;}.cls-114{fill:#717171;stroke-width:0.44314px;}.cls-115{fill:#727272;stroke-width:0.44706px;}.cls-116{fill:#737373;stroke-width:0.45098px;}.cls-117{fill:#747474;stroke-width:0.4549px;}.cls-118{fill:#757575;stroke-width:0.45882px;}.cls-119{fill:#767676;stroke-width:0.46275px;}.cls-120{fill:#777;stroke-width:0.46667px;}.cls-121{fill:#787878;stroke-width:0.47059px;}.cls-122{fill:#797979;stroke-width:0.47451px;}.cls-123{fill:#7a7a7a;stroke-width:0.47843px;}.cls-124{fill:#7b7b7b;stroke-width:0.48235px;}.cls-125{fill:#7c7c7c;stroke-width:0.48627px;}.cls-126{fill:#7d7d7d;stroke-width:0.4902px;}.cls-127{fill:#7e7e7e;stroke-width:0.49412px;}.cls-128{fill:#7f7f7f;stroke-width:0.49804px;}.cls-129{fill:gray;stroke-width:0.50196px;}.cls-130{fill:#818181;stroke-width:0.50588px;}.cls-131{fill:#828282;stroke-width:0.5098px;}.cls-132{fill:#838383;stroke-width:0.51373px;}.cls-133{fill:#848484;stroke-width:0.51765px;}.cls-134{fill:#858585;stroke-width:0.52157px;}.cls-135{fill:#868686;stroke-width:0.52549px;}.cls-136{fill:#878787;stroke-width:0.52941px;}.cls-137{fill:#888;stroke-width:0.53333px;}.cls-138{fill:#898989;stroke-width:0.53725px;}.cls-139{fill:#8a8a8a;stroke-width:0.54118px;}.cls-140{fill:#8b8b8b;stroke-width:0.5451px;}.cls-141{fill:#8c8c8c;stroke-width:0.54902px;}.cls-142{fill:#8d8d8d;stroke-width:0.55294px;}.cls-143{fill:#8e8e8e;stroke-width:0.55686px;}.cls-144{fill:#8f8f8f;stroke-width:0.56078px;}.cls-145{fill:#909090;stroke-width:0.56471px;}.cls-146{fill:#919191;stroke-width:0.56863px;}.cls-147{fill:#929292;stroke-width:0.57255px;}.cls-148{fill:#939393;stroke-width:0.57647px;}.cls-149{fill:#949494;stroke-width:0.58039px;}.cls-150{fill:#959595;stroke-width:0.58431px;}.cls-151{fill:#969696;stroke-width:0.58824px;}.cls-152{fill:#979797;stroke-width:0.59216px;}.cls-153{fill:#989898;stroke-width:0.59608px;}.cls-154{fill:#999;stroke-width:0.6px;}.cls-155{fill:#9a9a9a;stroke-width:0.60392px;}.cls-156{fill:#9b9b9b;stroke-width:0.60784px;}.cls-157{fill:#9c9c9c;stroke-width:0.61176px;}.cls-158{fill:#9d9d9d;stroke-width:0.61569px;}.cls-159{fill:#9e9e9e;stroke-width:0.61961px;}.cls-160{fill:#9f9f9f;stroke-width:0.62353px;}.cls-161{fill:#a0a0a0;stroke-width:0.62745px;}.cls-162{fill:#a1a1a1;stroke-width:0.63137px;}.cls-163{fill:#a2a2a2;stroke-width:0.63529px;}.cls-164{fill:#a3a3a3;stroke-width:0.63922px;}.cls-165{fill:#a4a4a4;stroke-width:0.64314px;}.cls-166{fill:#a5a5a5;stroke-width:0.64706px;}.cls-167{fill:#a6a6a6;stroke-width:0.65098px;}.cls-168{fill:#a7a7a7;stroke-width:0.6549px;}.cls-169{fill:#a8a8a8;stroke-width:0.65882px;}.cls-170{fill:#a9a9a9;stroke-width:0.66275px;}.cls-171{fill:#aaa;stroke-width:0.66667px;}.cls-172{fill:#ababab;stroke-width:0.67059px;}.cls-173{fill:#acacac;stroke-width:0.67451px;}.cls-174{fill:#adadad;stroke-width:0.67843px;}.cls-175{fill:#aeaeae;stroke-width:0.68235px;}.cls-176{fill:#afafaf;stroke-width:0.68627px;}.cls-177{fill:#b0b0b0;stroke-width:0.6902px;}.cls-178{fill:#b1b1b1;stroke-width:0.69412px;}.cls-179{fill:#b2b2b2;stroke-width:0.69804px;}.cls-180{fill:#b3b3b3;stroke-width:0.70196px;}.cls-181{fill:#b4b4b4;stroke-width:0.70588px;}.cls-182{fill:#b5b5b5;stroke-width:0.7098px;}.cls-183{fill:#b6b6b6;stroke-width:0.71373px;}.cls-184{fill:#b7b7b7;stroke-width:0.71765px;}.cls-185{fill:#b8b8b8;stroke-width:0.72157px;}.cls-186{fill:#b9b9b9;stroke-width:0.72549px;}.cls-187{fill:#bababa;stroke-width:0.72941px;}.cls-188{fill:#bbb;stroke-width:0.73333px;}.cls-189{fill:#bcbcbc;stroke-width:0.73725px;}.cls-190{fill:#bdbdbd;stroke-width:0.74118px;}.cls-191{fill:#bebebe;stroke-width:0.7451px;}.cls-192{fill:#bfbfbf;stroke-width:0.74902px;}.cls-193{fill:silver;stroke-width:0.75294px;}.cls-194{fill:#c1c1c1;stroke-width:0.75686px;}.cls-195{fill:#c2c2c2;stroke-width:0.76078px;}.cls-196{fill:#c3c3c3;stroke-width:0.76471px;}.cls-197{fill:#c4c4c4;stroke-width:0.76863px;}.cls-198{fill:#c5c5c5;stroke-width:0.77255px;}.cls-199{fill:#c6c6c6;stroke-width:0.77647px;}.cls-200{fill:#c7c7c7;stroke-width:0.78039px;}.cls-201{fill:#c8c8c8;stroke-width:0.78431px;}.cls-202{fill:#c9c9c9;stroke-width:0.78824px;}.cls-203{fill:#cacaca;stroke-width:0.79216px;}.cls-204{fill:#cbcbcb;stroke-width:0.79608px;}.cls-205{fill:#ccc;stroke-width:0.8px;}.cls-206{fill:#cdcdcd;stroke-width:0.80392px;}.cls-207{fill:#cecece;stroke-width:0.80784px;}.cls-208{fill:#cfcfcf;stroke-width:0.81176px;}.cls-209{fill:#d0d0d0;stroke-width:0.81569px;}.cls-210{fill:#d1d1d1;stroke-width:0.81961px;}.cls-211{fill:#d2d2d2;stroke-width:0.82353px;}.cls-212{fill:#d3d3d3;stroke-width:0.82745px;}.cls-213{fill:#d4d4d4;stroke-width:0.83137px;}.cls-214{fill:#d5d5d5;stroke-width:0.83529px;}.cls-215{fill:#d6d6d6;stroke-width:0.83922px;}.cls-216{fill:#d7d7d7;stroke-width:0.84314px;}.cls-217{fill:#d8d8d8;stroke-width:0.84706px;}.cls-218{fill:#d9d9d9;stroke-width:0.85098px;}.cls-219{fill:#dadada;stroke-width:0.8549px;}.cls-220{fill:#dbdbdb;stroke-width:0.85882px;}.cls-221{fill:#dcdcdc;stroke-width:0.86275px;}.cls-222{fill:#ddd;stroke-width:0.86667px;}.cls-223{fill:#dedede;stroke-width:0.87059px;}.cls-224{fill:#dfdfdf;stroke-width:0.87451px;}.cls-225{fill:#e0e0e0;stroke-width:0.87843px;}.cls-226{fill:#e1e1e1;stroke-width:0.88235px;}.cls-227{fill:#e2e2e2;stroke-width:0.88627px;}.cls-228{fill:#e3e3e3;stroke-width:0.8902px;}.cls-229{fill:#e4e4e4;stroke-width:0.89412px;}.cls-230{fill:#e5e5e5;stroke-width:0.89804px;}.cls-231{fill:#e6e6e6;stroke-width:0.90196px;}.cls-232{fill:#e7e7e7;stroke-width:0.90588px;}.cls-233{fill:#e8e8e8;stroke-width:0.9098px;}.cls-234{fill:#e9e9e9;stroke-width:0.91373px;}.cls-235{fill:#eaeaea;stroke-width:0.91765px;}.cls-236{fill:#ebebeb;stroke-width:0.92157px;}.cls-237{fill:#ececec;stroke-width:0.92549px;}.cls-238{fill:#ededed;stroke-width:0.92941px;}.cls-239{fill:#eee;stroke-width:0.93333px;}.cls-240{fill:#efefef;stroke-width:0.93725px;}.cls-241{fill:#f0f0f0;stroke-width:0.94118px;}.cls-242{fill:#f1f1f1;stroke-width:0.9451px;}.cls-243{fill:#f2f2f2;stroke-width:0.94902px;}.cls-244{fill:#f3f3f3;stroke-width:0.95294px;}.cls-245{fill:#f4f4f4;stroke-width:0.95686px;}.cls-246{fill:#f5f5f5;stroke-width:0.96078px;}.cls-247{fill:#f6f6f6;stroke-width:0.96471px;}.cls-248{fill:#f7f7f7;stroke-width:0.96863px;}.cls-249{fill:#f8f8f8;stroke-width:0.97255px;}.cls-250{fill:#f9f9f9;stroke-width:0.97647px;}.cls-251{fill:#fafafa;stroke-width:0.98039px;}.cls-252{fill:#fbfbfb;stroke-width:0.98431px;}.cls-253{fill:#fcfcfc;stroke-width:0.98824px;}.cls-254{fill:#fdfdfd;stroke-width:0.99216px;}.cls-255{fill:#fefefe;stroke-width:0.99608px;}.cls-256{fill:#fff;}</style></defs><title>KYD</title><circle class="cls-1" cx="62.0166" cy="62.0166" r="62.0166"/><polygon points="68.8 51.415 68.8 59.807 100.646 59.807 100.646 50.752 103.761 50.752 103.761 76.817 100.646 76.817 100.646 67.762 68.8 67.762 68.8 76.154 22.437 63.784 68.8 51.415"/><polygon class="cls-2" points="68.792 51.401 68.792 59.793 100.637 59.793 100.637 50.738 103.753 50.738 103.753 76.803 100.637 76.803 100.637 67.748 68.792 67.748 68.792 76.14 22.429 63.77 68.792 51.401"/><polygon class="cls-3" points="68.783 51.387 68.783 59.779 100.629 59.779 100.629 50.724 103.744 50.724 103.744 76.789 100.629 76.789 100.629 67.734 68.783 67.734 68.783 76.126 22.42 63.757 68.783 51.387"/><polygon class="cls-4" points="68.775 51.373 68.775 59.765 100.62 59.765 100.62 50.71 103.736 50.71 103.736 76.775 100.62 76.775 100.62 67.72 68.775 67.72 68.775 76.112 22.412 63.743 68.775 51.373"/><polygon class="cls-5" points="68.766 51.359 68.766 59.751 100.612 59.751 100.612 50.696 103.727 50.696 103.727 76.761 100.612 76.761 100.612 67.706 68.766 67.706 68.766 76.098 22.403 63.729 68.766 51.359"/><polygon class="cls-6" points="68.758 51.345 68.758 59.738 100.603 59.738 100.603 50.683 103.719 50.683 103.719 76.748 100.603 76.748 100.603 67.692 68.758 67.692 68.758 76.085 22.395 63.715 68.758 51.345"/><polygon class="cls-7" points="68.749 51.332 68.749 59.724 100.595 59.724 100.595 50.669 103.71 50.669 103.71 76.734 100.595 76.734 100.595 67.678 68.749 67.678 68.749 76.071 22.386 63.701 68.749 51.332"/><polygon class="cls-8" points="68.741 51.318 68.741 59.71 100.586 59.71 100.586 50.655 103.702 50.655 103.702 76.72 100.586 76.72 100.586 67.665 68.741 67.665 68.741 76.057 22.378 63.687 68.741 51.318"/><polygon class="cls-9" points="68.732 51.304 68.732 59.696 100.578 59.696 100.578 50.641 103.693 50.641 103.693 76.706 100.578 76.706 100.578 67.651 68.732 67.651 68.732 76.043 22.37 63.673 68.732 51.304"/><polygon class="cls-10" points="68.724 51.29 68.724 59.682 100.569 59.682 100.569 50.627 103.685 50.627 103.685 76.692 100.569 76.692 100.569 67.637 68.724 67.637 68.724 76.029 22.361 63.66 68.724 51.29"/><polygon class="cls-11" points="68.715 51.276 68.715 59.668 100.561 59.668 100.561 50.613 103.676 50.613 103.676 76.678 100.561 76.678 100.561 67.623 68.715 67.623 68.715 76.015 22.353 63.646 68.715 51.276"/><polygon class="cls-12" points="68.707 51.262 68.707 59.654 100.552 59.654 100.552 50.599 103.668 50.599 103.668 76.664 100.552 76.664 100.552 67.609 68.707 67.609 68.707 76.001 22.344 63.632 68.707 51.262"/><polygon class="cls-13" points="68.698 51.248 68.698 59.641 100.544 59.641 100.544 50.586 103.659 50.586 103.659 76.65 100.544 76.65 100.544 67.595 68.698 67.595 68.698 75.988 22.336 63.618 68.698 51.248"/><polygon class="cls-14" points="68.69 51.235 68.69 59.627 100.535 59.627 100.535 50.572 103.651 50.572 103.651 76.637 100.535 76.637 100.535 67.581 68.69 67.581 68.69 75.974 22.327 63.604 68.69 51.235"/><polygon class="cls-15" points="68.681 51.221 68.681 59.613 100.527 59.613 100.527 50.558 103.642 50.558 103.642 76.623 100.527 76.623 100.527 67.568 68.681 67.568 68.681 75.96 22.319 63.59 68.681 51.221"/><polygon class="cls-16" points="68.673 51.207 68.673 59.599 100.518 59.599 100.518 50.544 103.634 50.544 103.634 76.609 100.518 76.609 100.518 67.554 68.673 67.554 68.673 75.946 22.31 63.576 68.673 51.207"/><polygon class="cls-17" points="68.664 51.193 68.664 59.585 100.51 59.585 100.51 50.53 103.625 50.53 103.625 76.595 100.51 76.595 100.51 67.54 68.664 67.54 68.664 75.932 22.302 63.562 68.664 51.193"/><polygon class="cls-18" points="68.656 51.179 68.656 59.571 100.501 59.571 100.501 50.516 103.617 50.516 103.617 76.581 100.501 76.581 100.501 67.526 68.656 67.526 68.656 75.918 22.293 63.549 68.656 51.179"/><polygon class="cls-19" points="68.647 51.165 68.647 59.557 100.493 59.557 100.493 50.502 103.608 50.502 103.608 76.567 100.493 76.567 100.493 67.512 68.647 67.512 68.647 75.904 22.285 63.535 68.647 51.165"/><polygon class="cls-20" points="68.639 51.151 68.639 59.544 100.484 59.544 100.484 50.488 103.6 50.488 103.6 76.553 100.484 76.553 100.484 67.498 68.639 67.498 68.639 75.891 22.276 63.521 68.639 51.151"/><polygon class="cls-21" points="68.63 51.137 68.63 59.53 100.476 59.53 100.476 50.475 103.591 50.475 103.591 76.54 100.476 76.54 100.476 67.484 68.63 67.484 68.63 75.877 22.268 63.507 68.63 51.137"/><polygon class="cls-22" points="68.622 51.124 68.622 59.516 100.467 59.516 100.467 50.461 103.583 50.461 103.583 76.526 100.467 76.526 100.467 67.471 68.622 67.471 68.622 75.863 22.259 63.493 68.622 51.124"/><polygon class="cls-23" points="68.613 51.11 68.613 59.502 100.459 59.502 100.459 50.447 103.574 50.447 103.574 76.512 100.459 76.512 100.459 67.457 68.613 67.457 68.613 75.849 22.251 63.479 68.613 51.11"/><polygon class="cls-24" points="68.605 51.096 68.605 59.488 100.45 59.488 100.45 50.433 103.566 50.433 103.566 76.498 100.45 76.498 100.45 67.443 68.605 67.443 68.605 75.835 22.242 63.465 68.605 51.096"/><polygon class="cls-25" points="68.596 51.082 68.596 59.474 100.442 59.474 100.442 50.419 103.557 50.419 103.557 76.484 100.442 76.484 100.442 67.429 68.596 67.429 68.596 75.821 22.234 63.452 68.596 51.082"/><polygon class="cls-26" points="68.588 51.068 68.588 59.46 100.433 59.46 100.433 50.405 103.549 50.405 103.549 76.47 100.433 76.47 100.433 67.415 68.588 67.415 68.588 75.807 22.225 63.438 68.588 51.068"/><polygon class="cls-27" points="68.579 51.054 68.579 59.446 100.425 59.446 100.425 50.391 103.54 50.391 103.54 76.456 100.425 76.456 100.425 67.401 68.579 67.401 68.579 75.793 22.217 63.424 68.579 51.054"/><polygon class="cls-28" points="68.571 51.04 68.571 59.433 100.416 59.433 100.416 50.378 103.532 50.378 103.532 76.442 100.416 76.442 100.416 67.387 68.571 67.387 68.571 75.78 22.208 63.41 68.571 51.04"/><polygon class="cls-29" points="68.562 51.027 68.562 59.419 100.408 59.419 100.408 50.364 103.524 50.364 103.524 76.429 100.408 76.429 100.408 67.373 68.562 67.373 68.562 75.766 22.2 63.396 68.562 51.027"/><polygon class="cls-30" points="68.554 51.013 68.554 59.405 100.399 59.405 100.399 50.35 103.515 50.35 103.515 76.415 100.399 76.415 100.399 67.36 68.554 67.36 68.554 75.752 22.191 63.382 68.554 51.013"/><polygon class="cls-31" points="68.546 50.999 68.546 59.391 100.391 59.391 100.391 50.336 103.507 50.336 103.507 76.401 100.391 76.401 100.391 67.346 68.546 67.346 68.546 75.738 22.183 63.368 68.546 50.999"/><polygon class="cls-32" points="68.537 50.985 68.537 59.377 100.382 59.377 100.382 50.322 103.498 50.322 103.498 76.387 100.382 76.387 100.382 67.332 68.537 67.332 68.537 75.724 22.174 63.355 68.537 50.985"/><polygon class="cls-33" points="68.529 50.971 68.529 59.363 100.374 59.363 100.374 50.308 103.49 50.308 103.49 76.373 100.374 76.373 100.374 67.318 68.529 67.318 68.529 75.71 22.166 63.341 68.529 50.971"/><polygon class="cls-34" points="68.52 50.957 68.52 59.349 100.365 59.349 100.365 50.294 103.481 50.294 103.481 76.359 100.365 76.359 100.365 67.304 68.52 67.304 68.52 75.696 22.157 63.327 68.52 50.957"/><polygon class="cls-35" points="68.512 50.943 68.512 59.336 100.357 59.336 100.357 50.28 103.473 50.28 103.473 76.345 100.357 76.345 100.357 67.29 68.512 67.29 68.512 75.683 22.149 63.313 68.512 50.943"/><polygon class="cls-36" points="68.503 50.93 68.503 59.322 100.348 59.322 100.348 50.267 103.464 50.267 103.464 76.332 100.348 76.332 100.348 67.276 68.503 67.276 68.503 75.669 22.14 63.299 68.503 50.93"/><polygon class="cls-37" points="68.495 50.916 68.495 59.308 100.34 59.308 100.34 50.253 103.456 50.253 103.456 76.318 100.34 76.318 100.34 67.263 68.495 67.263 68.495 75.655 22.132 63.285 68.495 50.916"/><polygon class="cls-38" points="68.486 50.902 68.486 59.294 100.331 59.294 100.331 50.239 103.447 50.239 103.447 76.304 100.331 76.304 100.331 67.249 68.486 67.249 68.486 75.641 22.123 63.271 68.486 50.902"/><polygon class="cls-39" points="68.478 50.888 68.478 59.28 100.323 59.28 100.323 50.225 103.439 50.225 103.439 76.29 100.323 76.29 100.323 67.235 68.478 67.235 68.478 75.627 22.115 63.257 68.478 50.888"/><polygon class="cls-40" points="68.469 50.874 68.469 59.266 100.314 59.266 100.314 50.211 103.43 50.211 103.43 76.276 100.314 76.276 100.314 67.221 68.469 67.221 68.469 75.613 22.106 63.244 68.469 50.874"/><polygon class="cls-41" points="68.461 50.86 68.461 59.252 100.306 59.252 100.306 50.197 103.422 50.197 103.422 76.262 100.306 76.262 100.306 67.207 68.461 67.207 68.461 75.599 22.098 63.23 68.461 50.86"/><polygon class="cls-42" points="68.452 50.846 68.452 59.239 100.297 59.239 100.297 50.183 103.413 50.183 103.413 76.248 100.297 76.248 100.297 67.193 68.452 67.193 68.452 75.585 22.089 63.216 68.452 50.846"/><polygon class="cls-43" points="68.444 50.832 68.444 59.225 100.289 59.225 100.289 50.17 103.405 50.17 103.405 76.235 100.289 76.235 100.289 67.179 68.444 67.179 68.444 75.572 22.081 63.202 68.444 50.832"/><polygon class="cls-44" points="68.435 50.819 68.435 59.211 100.28 59.211 100.28 50.156 103.396 50.156 103.396 76.221 100.28 76.221 100.28 67.166 68.435 67.166 68.435 75.558 22.072 63.188 68.435 50.819"/><polygon class="cls-45" points="68.427 50.805 68.427 59.197 100.272 59.197 100.272 50.142 103.388 50.142 103.388 76.207 100.272 76.207 100.272 67.152 68.427 67.152 68.427 75.544 22.064 63.174 68.427 50.805"/><polygon class="cls-46" points="68.418 50.791 68.418 59.183 100.263 59.183 100.263 50.128 103.379 50.128 103.379 76.193 100.263 76.193 100.263 67.138 68.418 67.138 68.418 75.53 22.055 63.16 68.418 50.791"/><polygon class="cls-47" points="68.41 50.777 68.41 59.169 100.255 59.169 100.255 50.114 103.371 50.114 103.371 76.179 100.255 76.179 100.255 67.124 68.41 67.124 68.41 75.516 22.047 63.147 68.41 50.777"/><polygon class="cls-48" points="68.401 50.763 68.401 59.155 100.247 59.155 100.247 50.1 103.362 50.1 103.362 76.165 100.247 76.165 100.247 67.11 68.401 67.11 68.401 75.502 22.038 63.133 68.401 50.763"/><polygon class="cls-49" points="68.393 50.749 68.393 59.141 100.238 59.141 100.238 50.086 103.354 50.086 103.354 76.151 100.238 76.151 100.238 67.096 68.393 67.096 68.393 75.488 22.03 63.119 68.393 50.749"/><polygon class="cls-50" points="68.384 50.735 68.384 59.128 100.23 59.128 100.23 50.073 103.345 50.073 103.345 76.137 100.23 76.137 100.23 67.082 68.384 67.082 68.384 75.475 22.021 63.105 68.384 50.735"/><polygon class="cls-51" points="68.376 50.722 68.376 59.114 100.221 59.114 100.221 50.059 103.337 50.059 103.337 76.124 100.221 76.124 100.221 67.068 68.376 67.068 68.376 75.461 22.013 63.091 68.376 50.722"/><polygon class="cls-52" points="68.367 50.708 68.367 59.1 100.213 59.1 100.213 50.045 103.328 50.045 103.328 76.11 100.213 76.11 100.213 67.055 68.367 67.055 68.367 75.447 22.004 63.077 68.367 50.708"/><polygon class="cls-53" points="68.359 50.694 68.359 59.086 100.204 59.086 100.204 50.031 103.32 50.031 103.32 76.096 100.204 76.096 100.204 67.041 68.359 67.041 68.359 75.433 21.996 63.063 68.359 50.694"/><polygon class="cls-54" points="68.35 50.68 68.35 59.072 100.196 59.072 100.196 50.017 103.311 50.017 103.311 76.082 100.196 76.082 100.196 67.027 68.35 67.027 68.35 75.419 21.987 63.049 68.35 50.68"/><polygon class="cls-55" points="68.342 50.666 68.342 59.058 100.187 59.058 100.187 50.003 103.303 50.003 103.303 76.068 100.187 76.068 100.187 67.013 68.342 67.013 68.342 75.405 21.979 63.036 68.342 50.666"/><polygon class="cls-56" points="68.333 50.652 68.333 59.044 100.179 59.044 100.179 49.989 103.294 49.989 103.294 76.054 100.179 76.054 100.179 66.999 68.333 66.999 68.333 75.391 21.97 63.022 68.333 50.652"/><polygon class="cls-57" points="68.325 50.638 68.325 59.031 100.17 59.031 100.17 49.975 103.286 49.975 103.286 76.04 100.17 76.04 100.17 66.985 68.325 66.985 68.325 75.378 21.962 63.008 68.325 50.638"/><polygon class="cls-58" points="68.316 50.624 68.316 59.017 100.162 59.017 100.162 49.962 103.277 49.962 103.277 76.027 100.162 76.027 100.162 66.971 68.316 66.971 68.316 75.364 21.953 62.994 68.316 50.624"/><polygon class="cls-59" points="68.308 50.611 68.308 59.003 100.153 59.003 100.153 49.948 103.269 49.948 103.269 76.013 100.153 76.013 100.153 66.958 68.308 66.958 68.308 75.35 21.945 62.98 68.308 50.611"/><polygon class="cls-60" points="68.299 50.597 68.299 58.989 100.145 58.989 100.145 49.934 103.26 49.934 103.26 75.999 100.145 75.999 100.145 66.944 68.299 66.944 68.299 75.336 21.936 62.966 68.299 50.597"/><polygon class="cls-61" points="68.291 50.583 68.291 58.975 100.136 58.975 100.136 49.92 103.252 49.92 103.252 75.985 100.136 75.985 100.136 66.93 68.291 66.93 68.291 75.322 21.928 62.952 68.291 50.583"/><polygon class="cls-62" points="68.282 50.569 68.282 58.961 100.128 58.961 100.128 49.906 103.243 49.906 103.243 75.971 100.128 75.971 100.128 66.916 68.282 66.916 68.282 75.308 21.919 62.939 68.282 50.569"/><polygon class="cls-63" points="68.274 50.555 68.274 58.947 100.119 58.947 100.119 49.892 103.235 49.892 103.235 75.957 100.119 75.957 100.119 66.902 68.274 66.902 68.274 75.294 21.911 62.925 68.274 50.555"/><polygon class="cls-64" points="68.265 50.541 68.265 58.933 100.111 58.933 100.111 49.878 103.226 49.878 103.226 75.943 100.111 75.943 100.111 66.888 68.265 66.888 68.265 75.28 21.902 62.911 68.265 50.541"/><polygon class="cls-65" points="68.257 50.527 68.257 58.92 100.102 58.92 100.102 49.865 103.218 49.865 103.218 75.929 100.102 75.929 100.102 66.874 68.257 66.874 68.257 75.267 21.894 62.897 68.257 50.527"/><polygon class="cls-66" points="68.248 50.514 68.248 58.906 100.094 58.906 100.094 49.851 103.209 49.851 103.209 75.916 100.094 75.916 100.094 66.86 68.248 66.86 68.248 75.253 21.885 62.883 68.248 50.514"/><polygon class="cls-67" points="68.24 50.5 68.24 58.892 100.085 58.892 100.085 49.837 103.201 49.837 103.201 75.902 100.085 75.902 100.085 66.847 68.24 66.847 68.24 75.239 21.877 62.869 68.24 50.5"/><polygon class="cls-68" points="68.231 50.486 68.231 58.878 100.077 58.878 100.077 49.823 103.192 49.823 103.192 75.888 100.077 75.888 100.077 66.833 68.231 66.833 68.231 75.225 21.868 62.855 68.231 50.486"/><polygon class="cls-69" points="68.223 50.472 68.223 58.864 100.068 58.864 100.068 49.809 103.184 49.809 103.184 75.874 100.068 75.874 100.068 66.819 68.223 66.819 68.223 75.211 21.86 62.842 68.223 50.472"/><polygon class="cls-70" points="68.214 50.458 68.214 58.85 100.06 58.85 100.06 49.795 103.175 49.795 103.175 75.86 100.06 75.86 100.06 66.805 68.214 66.805 68.214 75.197 21.851 62.828 68.214 50.458"/><polygon class="cls-71" points="68.206 50.444 68.206 58.836 100.051 58.836 100.051 49.781 103.167 49.781 103.167 75.846 100.051 75.846 100.051 66.791 68.206 66.791 68.206 75.183 21.843 62.814 68.206 50.444"/><polygon class="cls-72" points="68.197 50.43 68.197 58.823 100.043 58.823 100.043 49.767 103.158 49.767 103.158 75.832 100.043 75.832 100.043 66.777 68.197 66.777 68.197 75.17 21.834 62.8 68.197 50.43"/><polygon class="cls-73" points="68.189 50.417 68.189 58.809 100.034 58.809 100.034 49.754 103.15 49.754 103.15 75.819 100.034 75.819 100.034 66.763 68.189 66.763 68.189 75.156 21.826 62.786 68.189 50.417"/><polygon class="cls-74" points="68.18 50.403 68.18 58.795 100.026 58.795 100.026 49.74 103.141 49.74 103.141 75.805 100.026 75.805 100.026 66.75 68.18 66.75 68.18 75.142 21.818 62.772 68.18 50.403"/><polygon class="cls-75" points="68.172 50.389 68.172 58.781 100.017 58.781 100.017 49.726 103.133 49.726 103.133 75.791 100.017 75.791 100.017 66.736 68.172 66.736 68.172 75.128 21.809 62.758 68.172 50.389"/><polygon class="cls-76" points="68.163 50.375 68.163 58.767 100.009 58.767 100.009 49.712 103.124 49.712 103.124 75.777 100.009 75.777 100.009 66.722 68.163 66.722 68.163 75.114 21.801 62.744 68.163 50.375"/><polygon class="cls-77" points="68.155 50.361 68.155 58.753 100 58.753 100 49.698 103.116 49.698 103.116 75.763 100 75.763 100 66.708 68.155 66.708 68.155 75.1 21.792 62.731 68.155 50.361"/><polygon class="cls-78" points="68.146 50.347 68.146 58.739 99.992 58.739 99.992 49.684 103.107 49.684 103.107 75.749 99.992 75.749 99.992 66.694 68.146 66.694 68.146 75.086 21.784 62.717 68.146 50.347"/><polygon class="cls-79" points="68.138 50.333 68.138 58.726 99.983 58.726 99.983 49.67 103.099 49.67 103.099 75.735 99.983 75.735 99.983 66.68 68.138 66.68 68.138 75.072 21.775 62.703 68.138 50.333"/><polygon class="cls-80" points="68.129 50.319 68.129 58.712 99.975 58.712 99.975 49.657 103.09 49.657 103.09 75.722 99.975 75.722 99.975 66.666 68.129 66.666 68.129 75.059 21.767 62.689 68.129 50.319"/><polygon class="cls-81" points="68.121 50.306 68.121 58.698 99.966 58.698 99.966 49.643 103.082 49.643 103.082 75.708 99.966 75.708 99.966 66.653 68.121 66.653 68.121 75.045 21.758 62.675 68.121 50.306"/><polygon class="cls-82" points="68.112 50.292 68.112 58.684 99.958 58.684 99.958 49.629 103.073 49.629 103.073 75.694 99.958 75.694 99.958 66.639 68.112 66.639 68.112 75.031 21.75 62.661 68.112 50.292"/><polygon class="cls-83" points="68.104 50.278 68.104 58.67 99.949 58.67 99.949 49.615 103.065 49.615 103.065 75.68 99.949 75.68 99.949 66.625 68.104 66.625 68.104 75.017 21.741 62.647 68.104 50.278"/><polygon class="cls-84" points="68.095 50.264 68.095 58.656 99.941 58.656 99.941 49.601 103.056 49.601 103.056 75.666 99.941 75.666 99.941 66.611 68.095 66.611 68.095 75.003 21.733 62.634 68.095 50.264"/><polygon class="cls-85" points="68.087 50.25 68.087 58.642 99.932 58.642 99.932 49.587 103.048 49.587 103.048 75.652 99.932 75.652 99.932 66.597 68.087 66.597 68.087 74.989 21.724 62.62 68.087 50.25"/><polygon class="cls-86" points="68.078 50.236 68.078 58.628 99.924 58.628 99.924 49.573 103.039 49.573 103.039 75.638 99.924 75.638 99.924 66.583 68.078 66.583 68.078 74.975 21.716 62.606 68.078 50.236"/><polygon class="cls-87" points="68.07 50.222 68.07 58.615 99.915 58.615 99.915 49.56 103.031 49.56 103.031 75.624 99.915 75.624 99.915 66.569 68.07 66.569 68.07 74.962 21.707 62.592 68.07 50.222"/><polygon class="cls-88" points="68.061 50.209 68.061 58.601 99.907 58.601 99.907 49.546 103.022 49.546 103.022 75.611 99.907 75.611 99.907 66.555 68.061 66.555 68.061 74.948 21.699 62.578 68.061 50.209"/><polygon class="cls-89" points="68.053 50.195 68.053 58.587 99.898 58.587 99.898 49.532 103.014 49.532 103.014 75.597 99.898 75.597 99.898 66.542 68.053 66.542 68.053 74.934 21.69 62.564 68.053 50.195"/><polygon class="cls-90" points="68.044 50.181 68.044 58.573 99.89 58.573 99.89 49.518 103.005 49.518 103.005 75.583 99.89 75.583 99.89 66.528 68.044 66.528 68.044 74.92 21.682 62.55 68.044 50.181"/><polygon class="cls-91" points="68.036 50.167 68.036 58.559 99.881 58.559 99.881 49.504 102.997 49.504 102.997 75.569 99.881 75.569 99.881 66.514 68.036 66.514 68.036 74.906 21.673 62.536 68.036 50.167"/><polygon class="cls-92" points="68.027 50.153 68.027 58.545 99.873 58.545 99.873 49.49 102.988 49.49 102.988 75.555 99.873 75.555 99.873 66.5 68.027 66.5 68.027 74.892 21.665 62.523 68.027 50.153"/><polygon class="cls-93" points="68.019 50.139 68.019 58.531 99.864 58.531 99.864 49.476 102.98 49.476 102.98 75.541 99.864 75.541 99.864 66.486 68.019 66.486 68.019 74.878 21.656 62.509 68.019 50.139"/><polygon class="cls-94" points="68.01 50.125 68.01 58.518 99.856 58.518 99.856 49.462 102.971 49.462 102.971 75.527 99.856 75.527 99.856 66.472 68.01 66.472 68.01 74.865 21.648 62.495 68.01 50.125"/><polygon class="cls-95" points="68.002 50.111 68.002 58.504 99.847 58.504 99.847 49.449 102.963 49.449 102.963 75.514 99.847 75.514 99.847 66.458 68.002 66.458 68.002 74.851 21.639 62.481 68.002 50.111"/><polygon class="cls-96" points="67.993 50.098 67.993 58.49 99.839 58.49 99.839 49.435 102.955 49.435 102.955 75.5 99.839 75.5 99.839 66.445 67.993 66.445 67.993 74.837 21.631 62.467 67.993 50.098"/><polygon class="cls-97" points="67.985 50.084 67.985 58.476 99.83 58.476 99.83 49.421 102.946 49.421 102.946 75.486 99.83 75.486 99.83 66.431 67.985 66.431 67.985 74.823 21.622 62.453 67.985 50.084"/><polygon class="cls-98" points="67.976 50.07 67.976 58.462 99.822 58.462 99.822 49.407 102.938 49.407 102.938 75.472 99.822 75.472 99.822 66.417 67.976 66.417 67.976 74.809 21.614 62.439 67.976 50.07"/><polygon class="cls-99" points="67.968 50.056 67.968 58.448 99.813 58.448 99.813 49.393 102.929 49.393 102.929 75.458 99.813 75.458 99.813 66.403 67.968 66.403 67.968 74.795 21.605 62.426 67.968 50.056"/><polygon class="cls-100" points="67.96 50.042 67.96 58.434 99.805 58.434 99.805 49.379 102.921 49.379 102.921 75.444 99.805 75.444 99.805 66.389 67.96 66.389 67.96 74.781 21.597 62.412 67.96 50.042"/><polygon class="cls-101" points="67.951 50.028 67.951 58.42 99.796 58.42 99.796 49.365 102.912 49.365 102.912 75.43 99.796 75.43 99.796 66.375 67.951 66.375 67.951 74.767 21.588 62.398 67.951 50.028"/><polygon class="cls-102" points="67.943 50.014 67.943 58.407 99.788 58.407 99.788 49.352 102.904 49.352 102.904 75.416 99.788 75.416 99.788 66.361 67.943 66.361 67.943 74.754 21.58 62.384 67.943 50.014"/><polygon class="cls-103" points="67.934 50.001 67.934 58.393 99.779 58.393 99.779 49.338 102.895 49.338 102.895 75.403 99.779 75.403 99.779 66.347 67.934 66.347 67.934 74.74 21.571 62.37 67.934 50.001"/><polygon class="cls-104" points="67.926 49.987 67.926 58.379 99.771 58.379 99.771 49.324 102.887 49.324 102.887 75.389 99.771 75.389 99.771 66.334 67.926 66.334 67.926 74.726 21.563 62.356 67.926 49.987"/><polygon class="cls-105" points="67.917 49.973 67.917 58.365 99.762 58.365 99.762 49.31 102.878 49.31 102.878 75.375 99.762 75.375 99.762 66.32 67.917 66.32 67.917 74.712 21.554 62.342 67.917 49.973"/><polygon class="cls-106" points="67.909 49.959 67.909 58.351 99.754 58.351 99.754 49.296 102.87 49.296 102.87 75.361 99.754 75.361 99.754 66.306 67.909 66.306 67.909 74.698 21.546 62.329 67.909 49.959"/><polygon class="cls-107" points="67.9 49.945 67.9 58.337 99.745 58.337 99.745 49.282 102.861 49.282 102.861 75.347 99.745 75.347 99.745 66.292 67.9 66.292 67.9 74.684 21.537 62.315 67.9 49.945"/><polygon class="cls-108" points="67.892 49.931 67.892 58.323 99.737 58.323 99.737 49.268 102.853 49.268 102.853 75.333 99.737 75.333 99.737 66.278 67.892 66.278 67.892 74.67 21.529 62.301 67.892 49.931"/><polygon class="cls-109" points="67.883 49.917 67.883 58.31 99.728 58.31 99.728 49.254 102.844 49.254 102.844 75.319 99.728 75.319 99.728 66.264 67.883 66.264 67.883 74.657 21.52 62.287 67.883 49.917"/><polygon class="cls-110" points="67.875 49.904 67.875 58.296 99.72 58.296 99.72 49.241 102.836 49.241 102.836 75.306 99.72 75.306 99.72 66.25 67.875 66.25 67.875 74.643 21.512 62.273 67.875 49.904"/><polygon class="cls-111" points="67.866 49.89 67.866 58.282 99.711 58.282 99.711 49.227 102.827 49.227 102.827 75.292 99.711 75.292 99.711 66.237 67.866 66.237 67.866 74.629 21.503 62.259 67.866 49.89"/><polygon class="cls-112" points="67.858 49.876 67.858 58.268 99.703 58.268 99.703 49.213 102.819 49.213 102.819 75.278 99.703 75.278 99.703 66.223 67.858 66.223 67.858 74.615 21.495 62.245 67.858 49.876"/><polygon class="cls-113" points="67.849 49.862 67.849 58.254 99.695 58.254 99.695 49.199 102.81 49.199 102.81 75.264 99.695 75.264 99.695 66.209 67.849 66.209 67.849 74.601 21.486 62.231 67.849 49.862"/><polygon class="cls-114" points="67.841 49.848 67.841 58.24 99.686 58.24 99.686 49.185 102.802 49.185 102.802 75.25 99.686 75.25 99.686 66.195 67.841 66.195 67.841 74.587 21.478 62.218 67.841 49.848"/><polygon class="cls-115" points="67.832 49.834 67.832 58.226 99.678 58.226 99.678 49.171 102.793 49.171 102.793 75.236 99.678 75.236 99.678 66.181 67.832 66.181 67.832 74.573 21.469 62.204 67.832 49.834"/><polygon class="cls-116" points="67.824 49.82 67.824 58.213 99.669 58.213 99.669 49.157 102.785 49.157 102.785 75.222 99.669 75.222 99.669 66.167 67.824 66.167 67.824 74.559 21.461 62.19 67.824 49.82"/><polygon class="cls-117" points="67.815 49.806 67.815 58.199 99.661 58.199 99.661 49.144 102.776 49.144 102.776 75.209 99.661 75.209 99.661 66.153 67.815 66.153 67.815 74.546 21.452 62.176 67.815 49.806"/><polygon class="cls-118" points="67.807 49.793 67.807 58.185 99.652 58.185 99.652 49.13 102.768 49.13 102.768 75.195 99.652 75.195 99.652 66.14 67.807 66.14 67.807 74.532 21.444 62.162 67.807 49.793"/><polygon class="cls-119" points="67.798 49.779 67.798 58.171 99.644 58.171 99.644 49.116 102.759 49.116 102.759 75.181 99.644 75.181 99.644 66.126 67.798 66.126 67.798 74.518 21.435 62.148 67.798 49.779"/><polygon class="cls-120" points="67.79 49.765 67.79 58.157 99.635 58.157 99.635 49.102 102.751 49.102 102.751 75.167 99.635 75.167 99.635 66.112 67.79 66.112 67.79 74.504 21.427 62.134 67.79 49.765"/><polygon class="cls-121" points="67.781 49.751 67.781 58.143 99.627 58.143 99.627 49.088 102.742 49.088 102.742 75.153 99.627 75.153 99.627 66.098 67.781 66.098 67.781 74.49 21.418 62.121 67.781 49.751"/><polygon class="cls-122" points="67.773 49.737 67.773 58.129 99.618 58.129 99.618 49.074 102.734 49.074 102.734 75.139 99.618 75.139 99.618 66.084 67.773 66.084 67.773 74.476 21.41 62.107 67.773 49.737"/><polygon class="cls-123" points="67.764 49.723 67.764 58.115 99.61 58.115 99.61 49.06 102.725 49.06 102.725 75.125 99.61 75.125 99.61 66.07 67.764 66.07 67.764 74.462 21.401 62.093 67.764 49.723"/><polygon class="cls-124" points="67.756 49.709 67.756 58.102 99.601 58.102 99.601 49.047 102.717 49.047 102.717 75.111 99.601 75.111 99.601 66.056 67.756 66.056 67.756 74.449 21.393 62.079 67.756 49.709"/><polygon class="cls-125" points="67.747 49.696 67.747 58.088 99.593 58.088 99.593 49.033 102.708 49.033 102.708 75.098 99.593 75.098 99.593 66.042 67.747 66.042 67.747 74.435 21.384 62.065 67.747 49.696"/><polygon class="cls-126" points="67.739 49.682 67.739 58.074 99.584 58.074 99.584 49.019 102.7 49.019 102.7 75.084 99.584 75.084 99.584 66.029 67.739 66.029 67.739 74.421 21.376 62.051 67.739 49.682"/><polygon class="cls-127" points="67.73 49.668 67.73 58.06 99.576 58.06 99.576 49.005 102.691 49.005 102.691 75.07 99.576 75.07 99.576 66.015 67.73 66.015 67.73 74.407 21.367 62.037 67.73 49.668"/><polygon class="cls-128" points="67.722 49.654 67.722 58.046 99.567 58.046 99.567 48.991 102.683 48.991 102.683 75.056 99.567 75.056 99.567 66.001 67.722 66.001 67.722 74.393 21.359 62.023 67.722 49.654"/><polygon class="cls-129" points="67.713 49.64 67.713 58.032 99.559 58.032 99.559 48.977 102.674 48.977 102.674 75.042 99.559 75.042 99.559 65.987 67.713 65.987 67.713 74.379 21.35 62.01 67.713 49.64"/><polygon class="cls-130" points="67.705 49.626 67.705 58.018 99.55 58.018 99.55 48.963 102.666 48.963 102.666 75.028 99.55 75.028 99.55 65.973 67.705 65.973 67.705 74.365 21.342 61.996 67.705 49.626"/><polygon class="cls-131" points="67.696 49.612 67.696 58.005 99.542 58.005 99.542 48.949 102.657 48.949 102.657 75.014 99.542 75.014 99.542 65.959 67.696 65.959 67.696 74.352 21.333 61.982 67.696 49.612"/><polygon class="cls-132" points="67.688 49.598 67.688 57.991 99.533 57.991 99.533 48.936 102.649 48.936 102.649 75.001 99.533 75.001 99.533 65.945 67.688 65.945 67.688 74.338 21.325 61.968 67.688 49.598"/><polygon class="cls-133" points="67.679 49.585 67.679 57.977 99.525 57.977 99.525 48.922 102.64 48.922 102.64 74.987 99.525 74.987 99.525 65.932 67.679 65.932 67.679 74.324 21.316 61.954 67.679 49.585"/><polygon class="cls-134" points="67.671 49.571 67.671 57.963 99.516 57.963 99.516 48.908 102.632 48.908 102.632 74.973 99.516 74.973 99.516 65.918 67.671 65.918 67.671 74.31 21.308 61.94 67.671 49.571"/><polygon class="cls-135" points="67.662 49.557 67.662 57.949 99.508 57.949 99.508 48.894 102.623 48.894 102.623 74.959 99.508 74.959 99.508 65.904 67.662 65.904 67.662 74.296 21.299 61.926 67.662 49.557"/><polygon class="cls-136" points="67.654 49.543 67.654 57.935 99.499 57.935 99.499 48.88 102.615 48.88 102.615 74.945 99.499 74.945 99.499 65.89 67.654 65.89 67.654 74.282 21.291 61.913 67.654 49.543"/><polygon class="cls-137" points="67.645 49.529 67.645 57.921 99.491 57.921 99.491 48.866 102.606 48.866 102.606 74.931 99.491 74.931 99.491 65.876 67.645 65.876 67.645 74.268 21.282 61.899 67.645 49.529"/><polygon class="cls-138" points="67.637 49.515 67.637 57.907 99.482 57.907 99.482 48.852 102.598 48.852 102.598 74.917 99.482 74.917 99.482 65.862 67.637 65.862 67.637 74.254 21.274 61.885 67.637 49.515"/><polygon class="cls-139" points="67.628 49.501 67.628 57.894 99.474 57.894 99.474 48.839 102.589 48.839 102.589 74.904 99.474 74.904 99.474 65.848 67.628 65.848 67.628 74.241 21.266 61.871 67.628 49.501"/><polygon class="cls-140" points="67.62 49.488 67.62 57.88 99.465 57.88 99.465 48.825 102.581 48.825 102.581 74.89 99.465 74.89 99.465 65.834 67.62 65.834 67.62 74.227 21.257 61.857 67.62 49.488"/><polygon class="cls-141" points="67.611 49.474 67.611 57.866 99.457 57.866 99.457 48.811 102.572 48.811 102.572 74.876 99.457 74.876 99.457 65.821 67.611 65.821 67.611 74.213 21.249 61.843 67.611 49.474"/><polygon class="cls-142" points="67.603 49.46 67.603 57.852 99.448 57.852 99.448 48.797 102.564 48.797 102.564 74.862 99.448 74.862 99.448 65.807 67.603 65.807 67.603 74.199 21.24 61.829 67.603 49.46"/><polygon class="cls-143" points="67.594 49.446 67.594 57.838 99.44 57.838 99.44 48.783 102.555 48.783 102.555 74.848 99.44 74.848 99.44 65.793 67.594 65.793 67.594 74.185 21.232 61.816 67.594 49.446"/><polygon class="cls-144" points="67.586 49.432 67.586 57.824 99.431 57.824 99.431 48.769 102.547 48.769 102.547 74.834 99.431 74.834 99.431 65.779 67.586 65.779 67.586 74.171 21.223 61.802 67.586 49.432"/><polygon class="cls-145" points="67.577 49.418 67.577 57.81 99.423 57.81 99.423 48.755 102.538 48.755 102.538 74.82 99.423 74.82 99.423 65.765 67.577 65.765 67.577 74.157 21.215 61.788 67.577 49.418"/><polygon class="cls-146" points="67.569 49.404 67.569 57.797 99.414 57.797 99.414 48.741 102.53 48.741 102.53 74.806 99.414 74.806 99.414 65.751 67.569 65.751 67.569 74.144 21.206 61.774 67.569 49.404"/><polygon class="cls-147" points="67.56 49.391 67.56 57.783 99.406 57.783 99.406 48.728 102.521 48.728 102.521 74.793 99.406 74.793 99.406 65.737 67.56 65.737 67.56 74.13 21.198 61.76 67.56 49.391"/><polygon class="cls-148" points="67.552 49.377 67.552 57.769 99.397 57.769 99.397 48.714 102.513 48.714 102.513 74.779 99.397 74.779 99.397 65.724 67.552 65.724 67.552 74.116 21.189 61.746 67.552 49.377"/><polygon class="cls-149" points="67.543 49.363 67.543 57.755 99.389 57.755 99.389 48.7 102.504 48.7 102.504 74.765 99.389 74.765 99.389 65.71 67.543 65.71 67.543 74.102 21.181 61.732 67.543 49.363"/><polygon class="cls-150" points="67.535 49.349 67.535 57.741 99.38 57.741 99.38 48.686 102.496 48.686 102.496 74.751 99.38 74.751 99.38 65.696 67.535 65.696 67.535 74.088 21.172 61.718 67.535 49.349"/><polygon class="cls-151" points="67.526 49.335 67.526 57.727 99.372 57.727 99.372 48.672 102.487 48.672 102.487 74.737 99.372 74.737 99.372 65.682 67.526 65.682 67.526 74.074 21.164 61.705 67.526 49.335"/><polygon class="cls-152" points="67.518 49.321 67.518 57.713 99.363 57.713 99.363 48.658 102.479 48.658 102.479 74.723 99.363 74.723 99.363 65.668 67.518 65.668 67.518 74.06 21.155 61.691 67.518 49.321"/><polygon class="cls-153" points="67.509 49.307 67.509 57.7 99.355 57.7 99.355 48.644 102.47 48.644 102.47 74.709 99.355 74.709 99.355 65.654 67.509 65.654 67.509 74.047 21.147 61.677 67.509 49.307"/><polygon class="cls-154" points="67.501 49.293 67.501 57.686 99.346 57.686 99.346 48.631 102.462 48.631 102.462 74.696 99.346 74.696 99.346 65.64 67.501 65.64 67.501 74.033 21.138 61.663 67.501 49.293"/><polygon class="cls-155" points="67.492 49.28 67.492 57.672 99.338 57.672 99.338 48.617 102.453 48.617 102.453 74.682 99.338 74.682 99.338 65.627 67.492 65.627 67.492 74.019 21.13 61.649 67.492 49.28"/><polygon class="cls-156" points="67.484 49.266 67.484 57.658 99.329 57.658 99.329 48.603 102.445 48.603 102.445 74.668 99.329 74.668 99.329 65.613 67.484 65.613 67.484 74.005 21.121 61.635 67.484 49.266"/><polygon class="cls-157" points="67.475 49.252 67.475 57.644 99.321 57.644 99.321 48.589 102.436 48.589 102.436 74.654 99.321 74.654 99.321 65.599 67.475 65.599 67.475 73.991 21.113 61.621 67.475 49.252"/><polygon class="cls-158" points="67.467 49.238 67.467 57.63 99.312 57.63 99.312 48.575 102.428 48.575 102.428 74.64 99.312 74.64 99.312 65.585 67.467 65.585 67.467 73.977 21.104 61.608 67.467 49.238"/><polygon class="cls-159" points="67.458 49.224 67.458 57.616 99.304 57.616 99.304 48.561 102.419 48.561 102.419 74.626 99.304 74.626 99.304 65.571 67.458 65.571 67.458 73.963 21.096 61.594 67.458 49.224"/><polygon class="cls-160" points="67.45 49.21 67.45 57.602 99.295 57.602 99.295 48.547 102.411 48.547 102.411 74.612 99.295 74.612 99.295 65.557 67.45 65.557 67.45 73.949 21.087 61.58 67.45 49.21"/><polygon class="cls-161" points="67.441 49.196 67.441 57.589 99.287 57.589 99.287 48.534 102.402 48.534 102.402 74.598 99.287 74.598 99.287 65.543 67.441 65.543 67.441 73.936 21.079 61.566 67.441 49.196"/><polygon class="cls-162" points="67.433 49.183 67.433 57.575 99.278 57.575 99.278 48.52 102.394 48.52 102.394 74.585 99.278 74.585 99.278 65.529 67.433 65.529 67.433 73.922 21.07 61.552 67.433 49.183"/><polygon class="cls-163" points="67.424 49.169 67.424 57.561 99.27 57.561 99.27 48.506 102.385 48.506 102.385 74.571 99.27 74.571 99.27 65.516 67.424 65.516 67.424 73.908 21.062 61.538 67.424 49.169"/><polygon class="cls-164" points="67.416 49.155 67.416 57.547 99.261 57.547 99.261 48.492 102.377 48.492 102.377 74.557 99.261 74.557 99.261 65.502 67.416 65.502 67.416 73.894 21.053 61.524 67.416 49.155"/><polygon class="cls-165" points="67.407 49.141 67.407 57.533 99.253 57.533 99.253 48.478 102.369 48.478 102.369 74.543 99.253 74.543 99.253 65.488 67.407 65.488 67.407 73.88 21.045 61.511 67.407 49.141"/><polygon class="cls-166" points="67.399 49.127 67.399 57.519 99.244 57.519 99.244 48.464 102.36 48.464 102.36 74.529 99.244 74.529 99.244 65.474 67.399 65.474 67.399 73.866 21.036 61.497 67.399 49.127"/><polygon class="cls-167" points="67.391 49.113 67.391 57.505 99.236 57.505 99.236 48.45 102.352 48.45 102.352 74.515 99.236 74.515 99.236 65.46 67.391 65.46 67.391 73.852 21.028 61.483 67.391 49.113"/><polygon class="cls-168" points="67.382 49.099 67.382 57.492 99.227 57.492 99.227 48.436 102.343 48.436 102.343 74.501 99.227 74.501 99.227 65.446 67.382 65.446 67.382 73.839 21.019 61.469 67.382 49.099"/><polygon class="cls-169" points="67.374 49.085 67.374 57.478 99.219 57.478 99.219 48.423 102.335 48.423 102.335 74.488 99.219 74.488 99.219 65.432 67.374 65.432 67.374 73.825 21.011 61.455 67.374 49.085"/><polygon class="cls-170" points="67.365 49.072 67.365 57.464 99.21 57.464 99.21 48.409 102.326 48.409 102.326 74.474 99.21 74.474 99.21 65.419 67.365 65.419 67.365 73.811 21.002 61.441 67.365 49.072"/><polygon class="cls-171" points="67.357 49.058 67.357 57.45 99.202 57.45 99.202 48.395 102.318 48.395 102.318 74.46 99.202 74.46 99.202 65.405 67.357 65.405 67.357 73.797 20.994 61.427 67.357 49.058"/><polygon class="cls-172" points="67.348 49.044 67.348 57.436 99.193 57.436 99.193 48.381 102.309 48.381 102.309 74.446 99.193 74.446 99.193 65.391 67.348 65.391 67.348 73.783 20.985 61.413 67.348 49.044"/><polygon class="cls-173" points="67.34 49.03 67.34 57.422 99.185 57.422 99.185 48.367 102.301 48.367 102.301 74.432 99.185 74.432 99.185 65.377 67.34 65.377 67.34 73.769 20.977 61.4 67.34 49.03"/><polygon class="cls-174" points="67.331 49.016 67.331 57.408 99.176 57.408 99.176 48.353 102.292 48.353 102.292 74.418 99.176 74.418 99.176 65.363 67.331 65.363 67.331 73.755 20.968 61.386 67.331 49.016"/><polygon class="cls-175" points="67.323 49.002 67.323 57.394 99.168 57.394 99.168 48.339 102.284 48.339 102.284 74.404 99.168 74.404 99.168 65.349 67.323 65.349 67.323 73.741 20.96 61.372 67.323 49.002"/><polygon class="cls-176" points="67.314 48.988 67.314 57.381 99.159 57.381 99.159 48.326 102.275 48.326 102.275 74.391 99.159 74.391 99.159 65.335 67.314 65.335 67.314 73.728 20.951 61.358 67.314 48.988"/><polygon class="cls-177" points="67.306 48.975 67.306 57.367 99.151 57.367 99.151 48.312 102.267 48.312 102.267 74.377 99.151 74.377 99.151 65.321 67.306 65.321 67.306 73.714 20.943 61.344 67.306 48.975"/><polygon class="cls-178" points="67.297 48.961 67.297 57.353 99.143 57.353 99.143 48.298 102.258 48.298 102.258 74.363 99.143 74.363 99.143 65.308 67.297 65.308 67.297 73.7 20.934 61.33 67.297 48.961"/><polygon class="cls-179" points="67.289 48.947 67.289 57.339 99.134 57.339 99.134 48.284 102.25 48.284 102.25 74.349 99.134 74.349 99.134 65.294 67.289 65.294 67.289 73.686 20.926 61.316 67.289 48.947"/><polygon class="cls-180" points="67.28 48.933 67.28 57.325 99.126 57.325 99.126 48.27 102.241 48.27 102.241 74.335 99.126 74.335 99.126 65.28 67.28 65.28 67.28 73.672 20.917 61.303 67.28 48.933"/><polygon class="cls-181" points="67.272 48.919 67.272 57.311 99.117 57.311 99.117 48.256 102.233 48.256 102.233 74.321 99.117 74.321 99.117 65.266 67.272 65.266 67.272 73.658 20.909 61.289 67.272 48.919"/><polygon class="cls-182" points="67.263 48.905 67.263 57.297 99.109 57.297 99.109 48.242 102.224 48.242 102.224 74.307 99.109 74.307 99.109 65.252 67.263 65.252 67.263 73.644 20.9 61.275 67.263 48.905"/><polygon class="cls-183" points="67.255 48.891 67.255 57.284 99.1 57.284 99.1 48.228 102.216 48.228 102.216 74.293 99.1 74.293 99.1 65.238 67.255 65.238 67.255 73.631 20.892 61.261 67.255 48.891"/><polygon class="cls-184" points="67.246 48.878 67.246 57.27 99.092 57.27 99.092 48.215 102.207 48.215 102.207 74.28 99.092 74.28 99.092 65.224 67.246 65.224 67.246 73.617 20.883 61.247 67.246 48.878"/><polygon class="cls-185" points="67.238 48.864 67.238 57.256 99.083 57.256 99.083 48.201 102.199 48.201 102.199 74.266 99.083 74.266 99.083 65.211 67.238 65.211 67.238 73.603 20.875 61.233 67.238 48.864"/><polygon class="cls-186" points="67.229 48.85 67.229 57.242 99.075 57.242 99.075 48.187 102.19 48.187 102.19 74.252 99.075 74.252 99.075 65.197 67.229 65.197 67.229 73.589 20.866 61.219 67.229 48.85"/><polygon class="cls-187" points="67.221 48.836 67.221 57.228 99.066 57.228 99.066 48.173 102.182 48.173 102.182 74.238 99.066 74.238 99.066 65.183 67.221 65.183 67.221 73.575 20.858 61.205 67.221 48.836"/><polygon class="cls-188" points="67.212 48.822 67.212 57.214 99.058 57.214 99.058 48.159 102.173 48.159 102.173 74.224 99.058 74.224 99.058 65.169 67.212 65.169 67.212 73.561 20.849 61.192 67.212 48.822"/><polygon class="cls-189" points="67.204 48.808 67.204 57.2 99.049 57.2 99.049 48.145 102.165 48.145 102.165 74.21 99.049 74.21 99.049 65.155 67.204 65.155 67.204 73.547 20.841 61.178 67.204 48.808"/><polygon class="cls-190" points="67.195 48.794 67.195 57.187 99.041 57.187 99.041 48.131 102.156 48.131 102.156 74.196 99.041 74.196 99.041 65.141 67.195 65.141 67.195 73.534 20.832 61.164 67.195 48.794"/><polygon class="cls-191" points="67.187 48.78 67.187 57.173 99.032 57.173 99.032 48.118 102.148 48.118 102.148 74.183 99.032 74.183 99.032 65.127 67.187 65.127 67.187 73.52 20.824 61.15 67.187 48.78"/><polygon class="cls-192" points="67.178 48.767 67.178 57.159 99.024 57.159 99.024 48.104 102.139 48.104 102.139 74.169 99.024 74.169 99.024 65.114 67.178 65.114 67.178 73.506 20.815 61.136 67.178 48.767"/><polygon class="cls-193" points="67.17 48.753 67.17 57.145 99.015 57.145 99.015 48.09 102.131 48.09 102.131 74.155 99.015 74.155 99.015 65.1 67.17 65.1 67.17 73.492 20.807 61.122 67.17 48.753"/><polygon class="cls-194" points="67.161 48.739 67.161 57.131 99.007 57.131 99.007 48.076 102.122 48.076 102.122 74.141 99.007 74.141 99.007 65.086 67.161 65.086 67.161 73.478 20.798 61.108 67.161 48.739"/><polygon class="cls-195" points="67.153 48.725 67.153 57.117 98.998 57.117 98.998 48.062 102.114 48.062 102.114 74.127 98.998 74.127 98.998 65.072 67.153 65.072 67.153 73.464 20.79 61.095 67.153 48.725"/><polygon class="cls-196" points="67.144 48.711 67.144 57.103 98.99 57.103 98.99 48.048 102.105 48.048 102.105 74.113 98.99 74.113 98.99 65.058 67.144 65.058 67.144 73.45 20.781 61.081 67.144 48.711"/><polygon class="cls-197" points="67.136 48.697 67.136 57.089 98.981 57.089 98.981 48.034 102.097 48.034 102.097 74.099 98.981 74.099 98.981 65.044 67.136 65.044 67.136 73.436 20.773 61.067 67.136 48.697"/><polygon class="cls-198" points="67.127 48.683 67.127 57.076 98.973 57.076 98.973 48.021 102.088 48.021 102.088 74.085 98.973 74.085 98.973 65.03 67.127 65.03 67.127 73.423 20.764 61.053 67.127 48.683"/><polygon class="cls-199" points="67.119 48.67 67.119 57.062 98.964 57.062 98.964 48.007 102.08 48.007 102.08 74.072 98.964 74.072 98.964 65.016 67.119 65.016 67.119 73.409 20.756 61.039 67.119 48.67"/><polygon class="cls-200" points="67.11 48.656 67.11 57.048 98.956 57.048 98.956 47.993 102.071 47.993 102.071 74.058 98.956 74.058 98.956 65.003 67.11 65.003 67.11 73.395 20.747 61.025 67.11 48.656"/><polygon class="cls-201" points="67.102 48.642 67.102 57.034 98.947 57.034 98.947 47.979 102.063 47.979 102.063 74.044 98.947 74.044 98.947 64.989 67.102 64.989 67.102 73.381 20.739 61.011 67.102 48.642"/><polygon class="cls-202" points="67.093 48.628 67.093 57.02 98.939 57.02 98.939 47.965 102.054 47.965 102.054 74.03 98.939 74.03 98.939 64.975 67.093 64.975 67.093 73.367 20.73 60.998 67.093 48.628"/><polygon class="cls-203" points="67.085 48.614 67.085 57.006 98.93 57.006 98.93 47.951 102.046 47.951 102.046 74.016 98.93 74.016 98.93 64.961 67.085 64.961 67.085 73.353 20.722 60.984 67.085 48.614"/><polygon class="cls-204" points="67.076 48.6 67.076 56.992 98.922 56.992 98.922 47.937 102.037 47.937 102.037 74.002 98.922 74.002 98.922 64.947 67.076 64.947 67.076 73.339 20.714 60.97 67.076 48.6"/><polygon class="cls-205" points="67.068 48.586 67.068 56.979 98.913 56.979 98.913 47.923 102.029 47.923 102.029 73.988 98.913 73.988 98.913 64.933 67.068 64.933 67.068 73.326 20.705 60.956 67.068 48.586"/><polygon class="cls-206" points="67.059 48.573 67.059 56.965 98.905 56.965 98.905 47.91 102.02 47.91 102.02 73.975 98.905 73.975 98.905 64.919 67.059 64.919 67.059 73.312 20.697 60.942 67.059 48.573"/><polygon class="cls-207" points="67.051 48.559 67.051 56.951 98.896 56.951 98.896 47.896 102.012 47.896 102.012 73.961 98.896 73.961 98.896 64.906 67.051 64.906 67.051 73.298 20.688 60.928 67.051 48.559"/><polygon class="cls-208" points="67.042 48.545 67.042 56.937 98.888 56.937 98.888 47.882 102.003 47.882 102.003 73.947 98.888 73.947 98.888 64.892 67.042 64.892 67.042 73.284 20.68 60.914 67.042 48.545"/><polygon class="cls-209" points="67.034 48.531 67.034 56.923 98.879 56.923 98.879 47.868 101.995 47.868 101.995 73.933 98.879 73.933 98.879 64.878 67.034 64.878 67.034 73.27 20.671 60.9 67.034 48.531"/><polygon class="cls-210" points="67.025 48.517 67.025 56.909 98.871 56.909 98.871 47.854 101.986 47.854 101.986 73.919 98.871 73.919 98.871 64.864 67.025 64.864 67.025 73.256 20.663 60.887 67.025 48.517"/><polygon class="cls-211" points="67.017 48.503 67.017 56.895 98.862 56.895 98.862 47.84 101.978 47.84 101.978 73.905 98.862 73.905 98.862 64.85 67.017 64.85 67.017 73.242 20.654 60.873 67.017 48.503"/><polygon class="cls-212" points="67.008 48.489 67.008 56.881 98.854 56.881 98.854 47.826 101.969 47.826 101.969 73.891 98.854 73.891 98.854 64.836 67.008 64.836 67.008 73.228 20.646 60.859 67.008 48.489"/><polygon class="cls-213" points="67 48.475 67 56.868 98.845 56.868 98.845 47.813 101.961 47.813 101.961 73.878 98.845 73.878 98.845 64.822 67 64.822 67 73.215 20.637 60.845 67 48.475"/><polygon class="cls-214" points="66.991 48.462 66.991 56.854 98.837 56.854 98.837 47.799 101.952 47.799 101.952 73.864 98.837 73.864 98.837 64.808 66.991 64.808 66.991 73.201 20.629 60.831 66.991 48.462"/><polygon class="cls-215" points="66.983 48.448 66.983 56.84 98.828 56.84 98.828 47.785 101.944 47.785 101.944 73.85 98.828 73.85 98.828 64.795 66.983 64.795 66.983 73.187 20.62 60.817 66.983 48.448"/><polygon class="cls-216" points="66.974 48.434 66.974 56.826 98.82 56.826 98.82 47.771 101.935 47.771 101.935 73.836 98.82 73.836 98.82 64.781 66.974 64.781 66.974 73.173 20.612 60.803 66.974 48.434"/><polygon class="cls-217" points="66.966 48.42 66.966 56.812 98.811 56.812 98.811 47.757 101.927 47.757 101.927 73.822 98.811 73.822 98.811 64.767 66.966 64.767 66.966 73.159 20.603 60.79 66.966 48.42"/><polygon class="cls-218" points="66.957 48.406 66.957 56.798 98.803 56.798 98.803 47.743 101.918 47.743 101.918 73.808 98.803 73.808 98.803 64.753 66.957 64.753 66.957 73.145 20.595 60.776 66.957 48.406"/><polygon class="cls-219" points="66.949 48.392 66.949 56.784 98.794 56.784 98.794 47.729 101.91 47.729 101.91 73.794 98.794 73.794 98.794 64.739 66.949 64.739 66.949 73.131 20.586 60.762 66.949 48.392"/><polygon class="cls-220" points="66.94 48.378 66.94 56.771 98.786 56.771 98.786 47.716 101.901 47.716 101.901 73.78 98.786 73.78 98.786 64.725 66.94 64.725 66.94 73.118 20.578 60.748 66.94 48.378"/><polygon class="cls-221" points="66.932 48.365 66.932 56.757 98.777 56.757 98.777 47.702 101.893 47.702 101.893 73.767 98.777 73.767 98.777 64.711 66.932 64.711 66.932 73.104 20.569 60.734 66.932 48.365"/><polygon class="cls-222" points="66.923 48.351 66.923 56.743 98.769 56.743 98.769 47.688 101.884 47.688 101.884 73.753 98.769 73.753 98.769 64.698 66.923 64.698 66.923 73.09 20.561 60.72 66.923 48.351"/><polygon class="cls-223" points="66.915 48.337 66.915 56.729 98.76 56.729 98.76 47.674 101.876 47.674 101.876 73.739 98.76 73.739 98.76 64.684 66.915 64.684 66.915 73.076 20.552 60.706 66.915 48.337"/><polygon class="cls-224" points="66.906 48.323 66.906 56.715 98.752 56.715 98.752 47.66 101.867 47.66 101.867 73.725 98.752 73.725 98.752 64.67 66.906 64.67 66.906 73.062 20.544 60.692 66.906 48.323"/><polygon class="cls-225" points="66.898 48.309 66.898 56.701 98.743 56.701 98.743 47.646 101.859 47.646 101.859 73.711 98.743 73.711 98.743 64.656 66.898 64.656 66.898 73.048 20.535 60.679 66.898 48.309"/><polygon class="cls-226" points="66.889 48.295 66.889 56.687 98.735 56.687 98.735 47.632 101.85 47.632 101.85 73.697 98.735 73.697 98.735 64.642 66.889 64.642 66.889 73.034 20.527 60.665 66.889 48.295"/><polygon class="cls-227" points="66.881 48.281 66.881 56.674 98.726 56.674 98.726 47.618 101.842 47.618 101.842 73.683 98.726 73.683 98.726 64.628 66.881 64.628 66.881 73.021 20.518 60.651 66.881 48.281"/><polygon class="cls-228" points="66.872 48.267 66.872 56.66 98.718 56.66 98.718 47.605 101.833 47.605 101.833 73.67 98.718 73.67 98.718 64.614 66.872 64.614 66.872 73.007 20.51 60.637 66.872 48.267"/><polygon class="cls-229" points="66.864 48.254 66.864 56.646 98.709 56.646 98.709 47.591 101.825 47.591 101.825 73.656 98.709 73.656 98.709 64.601 66.864 64.601 66.864 72.993 20.501 60.623 66.864 48.254"/><polygon class="cls-230" points="66.855 48.24 66.855 56.632 98.701 56.632 98.701 47.577 101.816 47.577 101.816 73.642 98.701 73.642 98.701 64.587 66.855 64.587 66.855 72.979 20.493 60.609 66.855 48.24"/><polygon class="cls-231" points="66.847 48.226 66.847 56.618 98.692 56.618 98.692 47.563 101.808 47.563 101.808 73.628 98.692 73.628 98.692 64.573 66.847 64.573 66.847 72.965 20.484 60.595 66.847 48.226"/><polygon class="cls-232" points="66.838 48.212 66.838 56.604 98.684 56.604 98.684 47.549 101.8 47.549 101.8 73.614 98.684 73.614 98.684 64.559 66.838 64.559 66.838 72.951 20.476 60.582 66.838 48.212"/><polygon class="cls-233" points="66.83 48.198 66.83 56.59 98.675 56.59 98.675 47.535 101.791 47.535 101.791 73.6 98.675 73.6 98.675 64.545 66.83 64.545 66.83 72.937 20.467 60.568 66.83 48.198"/><polygon class="cls-234" points="66.822 48.184 66.822 56.576 98.667 56.576 98.667 47.521 101.783 47.521 101.783 73.586 98.667 73.586 98.667 64.531 66.822 64.531 66.822 72.923 20.459 60.554 66.822 48.184"/><polygon class="cls-235" points="66.813 48.17 66.813 56.563 98.658 56.563 98.658 47.508 101.774 47.508 101.774 73.572 98.658 73.572 98.658 64.517 66.813 64.517 66.813 72.91 20.45 60.54 66.813 48.17"/><polygon class="cls-236" points="66.805 48.157 66.805 56.549 98.65 56.549 98.65 47.494 101.766 47.494 101.766 73.559 98.65 73.559 98.65 64.503 66.805 64.503 66.805 72.896 20.442 60.526 66.805 48.157"/><polygon class="cls-237" points="66.796 48.143 66.796 56.535 98.641 56.535 98.641 47.48 101.757 47.48 101.757 73.545 98.641 73.545 98.641 64.49 66.796 64.49 66.796 72.882 20.433 60.512 66.796 48.143"/><polygon class="cls-238" points="66.788 48.129 66.788 56.521 98.633 56.521 98.633 47.466 101.749 47.466 101.749 73.531 98.633 73.531 98.633 64.476 66.788 64.476 66.788 72.868 20.425 60.498 66.788 48.129"/><polygon class="cls-239" points="66.779 48.115 66.779 56.507 98.624 56.507 98.624 47.452 101.74 47.452 101.74 73.517 98.624 73.517 98.624 64.462 66.779 64.462 66.779 72.854 20.416 60.485 66.779 48.115"/><polygon class="cls-240" points="66.771 48.101 66.771 56.493 98.616 56.493 98.616 47.438 101.732 47.438 101.732 73.503 98.616 73.503 98.616 64.448 66.771 64.448 66.771 72.84 20.408 60.471 66.771 48.101"/><polygon class="cls-241" points="66.762 48.087 66.762 56.479 98.607 56.479 98.607 47.424 101.723 47.424 101.723 73.489 98.607 73.489 98.607 64.434 66.762 64.434 66.762 72.826 20.399 60.457 66.762 48.087"/><polygon class="cls-242" points="66.754 48.073 66.754 56.466 98.599 56.466 98.599 47.41 101.715 47.41 101.715 73.475 98.599 73.475 98.599 64.42 66.754 64.42 66.754 72.813 20.391 60.443 66.754 48.073"/><polygon class="cls-243" points="66.745 48.06 66.745 56.452 98.591 56.452 98.591 47.397 101.706 47.397 101.706 73.462 98.591 73.462 98.591 64.406 66.745 64.406 66.745 72.799 20.382 60.429 66.745 48.06"/><polygon class="cls-244" points="66.737 48.046 66.737 56.438 98.582 56.438 98.582 47.383 101.698 47.383 101.698 73.448 98.582 73.448 98.582 64.393 66.737 64.393 66.737 72.785 20.374 60.415 66.737 48.046"/><polygon class="cls-245" points="66.728 48.032 66.728 56.424 98.574 56.424 98.574 47.369 101.689 47.369 101.689 73.434 98.574 73.434 98.574 64.379 66.728 64.379 66.728 72.771 20.365 60.401 66.728 48.032"/><polygon class="cls-246" points="66.72 48.018 66.72 56.41 98.565 56.41 98.565 47.355 101.681 47.355 101.681 73.42 98.565 73.42 98.565 64.365 66.72 64.365 66.72 72.757 20.357 60.387 66.72 48.018"/><polygon class="cls-247" points="66.711 48.004 66.711 56.396 98.557 56.396 98.557 47.341 101.672 47.341 101.672 73.406 98.557 73.406 98.557 64.351 66.711 64.351 66.711 72.743 20.348 60.374 66.711 48.004"/><polygon class="cls-248" points="66.703 47.99 66.703 56.382 98.548 56.382 98.548 47.327 101.664 47.327 101.664 73.392 98.548 73.392 98.548 64.337 66.703 64.337 66.703 72.729 20.34 60.36 66.703 47.99"/><polygon class="cls-249" points="66.694 47.976 66.694 56.368 98.54 56.368 98.54 47.313 101.655 47.313 101.655 73.378 98.54 73.378 98.54 64.323 66.694 64.323 66.694 72.715 20.331 60.346 66.694 47.976"/><polygon class="cls-250" points="66.686 47.962 66.686 56.355 98.531 56.355 98.531 47.3 101.647 47.3 101.647 73.365 98.531 73.365 98.531 64.309 66.686 64.309 66.686 72.702 20.323 60.332 66.686 47.962"/><polygon class="cls-251" points="66.677 47.949 66.677 56.341 98.523 56.341 98.523 47.286 101.638 47.286 101.638 73.351 98.523 73.351 98.523 64.295 66.677 64.295 66.677 72.688 20.314 60.318 66.677 47.949"/><polygon class="cls-252" points="66.669 47.935 66.669 56.327 98.514 56.327 98.514 47.272 101.63 47.272 101.63 73.337 98.514 73.337 98.514 64.282 66.669 64.282 66.669 72.674 20.306 60.304 66.669 47.935"/><polygon class="cls-253" points="66.66 47.921 66.66 56.313 98.506 56.313 98.506 47.258 101.621 47.258 101.621 73.323 98.506 73.323 98.506 64.268 66.66 64.268 66.66 72.66 20.297 60.29 66.66 47.921"/><polygon class="cls-254" points="66.652 47.907 66.652 56.299 98.497 56.299 98.497 47.244 101.613 47.244 101.613 73.309 98.497 73.309 98.497 64.254 66.652 64.254 66.652 72.646 20.289 60.277 66.652 47.907"/><polygon class="cls-255" points="66.643 47.893 66.643 56.285 98.489 56.285 98.489 47.23 101.604 47.23 101.604 73.295 98.489 73.295 98.489 64.24 66.643 64.24 66.643 72.632 20.28 60.263 66.643 47.893"/><polygon class="cls-256" points="66.635 47.879 66.635 56.271 98.48 56.271 98.48 47.216 101.596 47.216 101.596 73.281 98.48 73.281 98.48 64.226 66.635 64.226 66.635 72.618 20.272 60.249 66.635 47.879"/></svg>