<svg id="Ebene_1" data-name="Ebene 1" xmlns="http://www.w3.org/2000/svg" viewBox="0 0 417.54877 234.59872"><defs><style>.cls-1{fill:#ff931e;}.cls-2{fill:#fff;stroke:#ff931e;stroke-miterlimit:10;stroke-width:2px;}</style></defs><title>logo</title><path class="cls-1" d="M189.52694,54.40731V56.1827H166.44735V54.40731h3.99414L158.63534,32.837l-3.728,4.7041V54.40731h4.43848V56.1827h-22.1919V54.40731h4.43848V8.24813h-4.43848V6.47274h22.1919V8.24813h-4.43848V34.43465L175.50155,8.24813H167.335V6.47274h18.1084V8.24813H177.898L167.42342,21.56356l18.28614,32.84375Zm43.67334-15.97852H206.39217q.88623,15.6255,12.16114,15.62305a20.24025,20.24025,0,0,0,6.87988-1.41992,11.31788,11.31788,0,0,0,5.63672-3.99414l1.24267.88769a14.23482,14.23482,0,0,1-6.65771,5.41407,22.54443,22.54443,0,0,1-9.36475,2.13086,34.66658,34.66658,0,0,1-8.38867-.93164,25.28427,25.28427,0,0,1-7.27881-3.15137,14.65787,14.65787,0,0,1-5.54834-6.65821,26.063,26.063,0,0,1-1.99707-10.74023q0-10.74024,5.94727-15.93457A21.17189,21.17189,0,0,1,213.4493,14.462a19.0761,19.0761,0,0,1,14.11426,5.68066Q233.19954,25.8248,233.20028,38.42879ZM206.30379,36.6534h14.46875a52.788,52.788,0,0,0-1.73095-14.291q-1.73072-6.12452-5.54785-6.125-3.81739,0-5.50342,5.90332a49.36,49.36,0,0,0-1.68653,13.53711Zm72.61182,1.77539h-26.8081q.88623,15.6255,12.16113,15.62305a20.24025,20.24025,0,0,0,6.87988-1.41992,11.31788,11.31788,0,0,0,5.63672-3.99414l1.24268.88769a14.2349,14.2349,0,0,1-6.65772,5.41407,22.54443,22.54443,0,0,1-9.36475,2.13086,34.66658,34.66658,0,0,1-8.38867-.93164,25.28427,25.28427,0,0,1-7.27881-3.15137,14.65793,14.65793,0,0,1-5.54834-6.65821,26.063,26.063,0,0,1-1.99707-10.74023q0-10.74024,5.94727-15.93457a21.17189,21.17189,0,0,1,14.4248-5.19238,19.0761,19.0761,0,0,1,14.11426,5.68066Q278.91489,25.8248,278.91561,38.42879ZM252.01913,36.6534h14.46875a52.78755,52.78755,0,0,0-1.731-14.291q-1.73071-6.12452-5.54785-6.125-3.81738,0-5.50342,5.90332a49.36007,49.36007,0,0,0-1.68652,13.53711Zm49.35449-17.2207q3.01684-5.14746,10.82959-5.14844A17.02184,17.02184,0,0,1,325.252,19.9659q5.23681,5.68066,5.2373,16.06641,0,10.38574-5.14844,16.24414a16.063,16.063,0,0,1-12.51611,5.85938,15.80578,15.80578,0,0,1-6.835-1.50977,9.281,9.281,0,0,1-4.61621-4.52637V73.04891h4.43847V74.8243H288.05868V17.12508H283.6202V15.34969h17.75342Zm0,15.35742V49.43661q2.39647,4.793,6.2583,4.793,3.86133,0,6.61328-4.43848,2.75025-4.437,2.75147-14.24707,0-9.80714-2.13038-13.75879a6.92718,6.92718,0,0,0-6.48-3.9502q-4.35058,0-5.68115,3.55079Q301.37363,24.9366,301.37362,34.79012ZM254.461,140.54989h-20.4165V138.7745h3.55078V120.045L221.70565,92.61532h-4.61572V90.83993h24.855v1.77539H237.5953l12.42724,22.36914,11.54-22.36914H254.461V90.83993H269.9952v1.77539h-6.21338l-12.87158,25.03222v21.127H254.461Zm41.188.88769a23.732,23.732,0,0,1-15.26807-5.5039q-6.83641-5.502-6.835-15.62305a22.54163,22.54163,0,0,1,1.99707-9.67578,17.47626,17.47626,0,0,1,5.32617-6.74609,25.5319,25.5319,0,0,1,7.146-3.77247,24.30213,24.30213,0,0,1,7.81152-1.28711,24.70939,24.70939,0,0,1,7.856,1.28711,25.38041,25.38041,0,0,1,7.18994,3.77247,17.85906,17.85906,0,0,1,5.37061,6.74609,21.91881,21.91881,0,0,1,2.0415,9.58691,21.34049,21.34049,0,0,1-2.0415,9.498,17.80356,17.80356,0,0,1-5.415,6.6582A24.66938,24.66938,0,0,1,295.649,141.43758Zm-6.56885-6.25781a6.84535,6.84535,0,0,0,6.74658,4.48242,7.00945,7.00945,0,0,0,6.835-4.52734q2.04126-4.52637,2.04151-14.957,0-10.4297-2.04151-15.002a7.00994,7.00994,0,0,0-6.835-4.57128,6.84629,6.84629,0,0,0-6.74658,4.57128q-1.95336,4.57324-1.95264,15.0459Q287.12752,130.69686,289.08016,135.17977Zm66.043,5.37012v-4.70508a12.70257,12.70257,0,0,1-5.28174,4.03906,18.474,18.474,0,0,1-7.76758,1.64258q-15.80127,0-15.80029-17.13184V101.49227H321.835V99.71688h17.75342v26.62988q0,6.30469,1.86426,8.96582a6.37465,6.37465,0,0,0,5.59229,2.66309q4.97021,0,8.07812-5.32617V101.49227h-4.43848V99.71688h17.75342V138.7745h4.43848v1.77539Zm46.1582,0H379.08944V138.7745h4.43848V101.49227h-4.43848V99.71688h17.75342v10.56348a16.53379,16.53379,0,0,1,2.88476-7.10157,10.11817,10.11817,0,0,1,4.61621-3.63964,14.74045,14.74045,0,0,1,4.88233-.8877,12.4156,12.4156,0,0,1,4.52685.84375,5.79318,5.79318,0,0,1,3.24024,3.37305,6.53052,6.53052,0,0,1,.08886,5.05957,6.20348,6.20348,0,0,1-3.418,3.59472,5.69959,5.69959,0,0,1-4.48243.26661,5.87762,5.87762,0,0,1-2.92968-2.17481,9.8799,9.8799,0,0,1-1.24268-2.61816q-.88842-3.28419-2.39648-3.28516-1.6875,0-3.72852,5.81445a36.82857,36.82857,0,0,0-2.0415,12.29493v16.9541h4.43847ZM28.66463,213.98153H6.47274v-1.77539h4.43848V166.047H6.47274v-1.77539H28.66463a30.88086,30.88086,0,0,1,11.85059,2.1748,23.83012,23.83012,0,0,1,8.56592,5.72559,24.2267,24.2267,0,0,1,6.65771,16.68847q0,12.605-6.65771,18.86329Q42.42342,213.98153,28.66463,213.98153Zm-4.43847-1.77539q9.58667,0,13.84765-5.19238,4.26123-5.19435,4.26075-16.95508,0-11.76123-4.61573-17.88672-4.61644-6.12452-13.49267-6.125Zm76.51709,1.55371a22.44551,22.44551,0,0,1-5.77.665q-7.27955,0-9.14307-4.34961-4.43994,4.61718-13.58154,4.61621a13.4243,13.4243,0,0,1-8.0332-2.26367,7.71817,7.71817,0,0,1-3.15137-6.70215,10.56223,10.56223,0,0,1,4.61572-9.18652q4.615-3.24024,16.15576-4.57227l3.55078-.44336v-4.34961q0-7.72266-1.1538-10.38574-1.155-2.66309-4.57178-2.66309-3.41822,0-4.39405.93164a2.15062,2.15062,0,0,0-.71,2.13086q.26588,1.19825.8877,3.15137a10.96218,10.96218,0,0,1,.62109,3.10645,6.517,6.517,0,0,1-6.52441,6.56933,6.42937,6.42937,0,0,1-4.66016-1.90918,6.26386,6.26386,0,0,1-1.95263-4.66015q0-4.52637,4.66015-7.76758,4.66041-3.23877,13.93653-3.23926,9.27465,0,13.22607,3.63965,3.94922,3.64014,3.9502,12.87109v15.97754q0,4.70655,1.15429,5.90332,1.15211,1.19824,4.26074.48828v.8877A7.7928,7.7928,0,0,1,100.74325,213.75985Zm-24.855-4.61621a6.90978,6.90978,0,0,0,4.749,1.81933,5.90934,5.90934,0,0,0,4.749-2.66211V193.21l-3.1958.44336a10.94373,10.94373,0,0,0-6.61279,3.10743q-2.53052,2.57519-2.1748,7.19043A8.06981,8.06981,0,0,0,75.88827,209.14364Zm55.7456,4.83789H109.442v-1.77539h4.43847V174.92391H109.442v-1.77539H127.1954V183.712a16.53379,16.53379,0,0,1,2.88476-7.10157,10.11817,10.11817,0,0,1,4.61621-3.63964,14.74045,14.74045,0,0,1,4.88233-.8877,12.4156,12.4156,0,0,1,4.52685.84375,5.79318,5.79318,0,0,1,3.24024,3.37305,6.53057,6.53057,0,0,1,.08886,5.05957,6.20346,6.20346,0,0,1-3.418,3.59472,5.69957,5.69957,0,0,1-4.48242.26661,5.87762,5.87762,0,0,1-2.92968-2.17481,9.8799,9.8799,0,0,1-1.24268-2.61816q-.88843-3.28419-2.39648-3.28516-1.6875,0-3.72852,5.81445a36.82857,36.82857,0,0,0-2.0415,12.29493v16.9541h4.43847Zm38.43506-1.77539h4.43848v1.77539h-22.1919v-1.77539H156.754V156.28231h-4.43848v-1.77539h17.75342Zm28.40527,0h4.43848v1.77539H180.72079v-1.77539h4.43847V174.92391h-3.55078v-1.77539H198.4742Zm.79883-50.81934a7.72733,7.72733,0,0,1-7.76709,7.7666,7.63667,7.63667,0,0,1-5.54785-2.26269,7.41621,7.41621,0,0,1-2.3081-5.50391,7.88132,7.88132,0,0,1,7.856-7.85644,7.42181,7.42181,0,0,1,5.50342,2.30859A7.64037,7.64037,0,0,1,199.273,161.3868Zm56.45557,50.81934h4.43848v1.77539h-22.1919v-1.77539h4.438V187.35165q0-6.30177-1.86377-8.96582a6.37463,6.37463,0,0,0-5.59229-2.66309q-5.06029,0-8.07812,5.32617v31.15723h4.43848v1.77539h-22.1919v-1.77539h4.43848V174.92391h-4.43848v-1.77539H226.879v4.61621a13.09884,13.09884,0,0,1,5.28174-3.95019,18.46693,18.46693,0,0,1,7.76709-1.64258q15.79907,0,15.80078,17.13183Zm21.48047-6.48047q0,2.4873,3.1958,2.84082h15.26806q7.89918,0,11.00684,3.37305a9.1558,9.1558,0,0,1,2.17481,8.34472q-.93165,4.97022-6.08057,9.14258-5.14893,4.17188-14.20264,4.17188-16.60033,0-21.3042-4.88184a5.66346,5.66346,0,0,1-1.50927-4.57129,6.66992,6.66992,0,0,1,1.95312-4.26074,9.02428,9.02428,0,0,1,3.8169-2.26367,7.47629,7.47629,0,0,1-2.84034-5.94727,10.06143,10.06143,0,0,1,2.17481-6.34765,17.95415,17.95415,0,0,1,5.01513-4.48243q-10.20923-3.728-10.20849-13.40429,0-7.18945,6.61328-11.13965a28.60539,28.60539,0,0,1,14.95752-3.9502,26.77906,26.77906,0,0,1,7.98926,1.24219,10.70358,10.70358,0,0,1-2.042-6.56836,8.45708,8.45708,0,0,1,2.61866-6.34668,9.07483,9.07483,0,0,1,6.56884-2.53027q3.94923,0,5.94727,2.08594a6.58689,6.58689,0,0,1,1.99756,4.66015,6.37044,6.37044,0,0,1-1.55371,4.34961,5.543,5.543,0,0,1-9.63086-3.32812,6.48579,6.48579,0,0,1,.66553-3.01856,7.39608,7.39608,0,0,0,.666-1.46484q-.26659-1.418-1.77539-.79883a5.61972,5.61972,0,0,0-2.61865,2.53027,8.57744,8.57744,0,0,0-1.10986,4.39356,9.00166,9.00166,0,0,0,4.3496,7.81152q7.6333,4.26123,7.63428,11.80664a12.54772,12.54772,0,0,1-6.30273,11.40625,27.987,27.987,0,0,1-14.91309,3.86133,27.57463,27.57463,0,0,1-7.36767-.8877A8.0675,8.0675,0,0,0,277.20907,205.72567Zm17.93115,14.38086H280.22713a15.58236,15.58236,0,0,1-7.18994-1.50879q-1.24438,6.39111,3.23975,9.80859,4.48168,3.416,12.29443,3.418,7.80982,0,12.96-3.90625,2.39649-1.77686,2.66309-3.55078.26659-1.77685-2.0415-3.01758Q299.84358,220.10457,295.14022,220.10653Zm-1.50928-32.88867q0-7.58936-1.77539-10.34082a5.87847,5.87847,0,0,0-5.28174-2.752,5.4429,5.4429,0,0,0-5.104,2.7959q-1.59741,2.79639-1.59766,10.25293,0,7.456,1.68653,10.47461a5.48517,5.48517,0,0,0,5.104,3.01758,5.7153,5.7153,0,0,0,5.19287-2.92871Q293.63022,194.80769,293.63094,187.21786Zm41.80957,26.05371q9.23145,0,9.23194-5.05957,0-2.84034-3.1958-4.66114a31.25493,31.25493,0,0,0-7.72266-2.97363q-4.5271-1.15137-8.92139-2.66308a16.68428,16.68428,0,0,1-7.27881-4.793q-2.88573-3.28272-2.35253-8.61035a11.9242,11.9242,0,0,1,5.45947-8.78809,20.62574,20.62574,0,0,1,12.16113-3.46191q7.23412,0,11.67285,2.30761,4.43775,2.31006,4.97119,6.21387a6.93616,6.93616,0,0,1-.75488,4.43848,3.99579,3.99579,0,0,1-3.63916,2.13086,5.81679,5.81679,0,0,1-4.17236-1.332,3.96962,3.96962,0,0,1-1.55323-3.28418,5.19431,5.19431,0,0,1,1.42041-3.3291,4.103,4.103,0,0,0,1.33155-2.35254q0-1.50732-2.88526-2.26269a26.436,26.436,0,0,0-6.65722-.75488,10.48873,10.48873,0,0,0-6.16944,1.68652,4.974,4.974,0,0,0-2.397,4.17187q0,2.48584,2.97363,4.26075a27.67739,27.67739,0,0,0,7.23487,2.88476q4.26049,1.11181,8.47705,2.48633a17.61184,17.61184,0,0,1,7.19043,4.39356,10.43293,10.43293,0,0,1,2.97363,7.63378,12.21022,12.21022,0,0,1-4.34961,9.80957q-4.35059,3.68409-13.13769,3.6836-8.7876,0-14.24707-2.66309t-5.9917-6.835a6.75441,6.75441,0,0,1,.79882-4.43848,4.06314,4.06314,0,0,1,3.63916-2.13085,5.76559,5.76559,0,0,1,4.12793,1.332,3.97638,3.97638,0,0,1,1.55323,3.28418,5.20123,5.20123,0,0,1-1.41993,3.3291,4.10406,4.10406,0,0,0-1.33154,2.35156q0,1.77685,4.12744,2.88574A33.88447,33.88447,0,0,0,335.44051,213.27157Z"/><path class="cls-2" d="M184.0542,48.93457V50.71H160.97461V48.93457h3.99414L153.1626,27.36426l-3.728,4.7041V48.93457h4.43848V50.71h-22.1919V48.93457h4.43848V2.77539h-4.43848V1h22.1919V2.77539h-4.43848V28.96191L170.02881,2.77539H161.8623V1h18.1084V2.77539h-7.54541L161.95068,16.09082l18.28614,32.84375Z"/><path class="cls-2" d="M227.72754,32.95605H200.91943q.88623,15.6255,12.16114,15.62305a20.24,20.24,0,0,0,6.87988-1.41992,11.31788,11.31788,0,0,0,5.63672-3.99414l1.24267.88769a14.23476,14.23476,0,0,1-6.65771,5.41407,22.54427,22.54427,0,0,1-9.36475,2.13086,34.66658,34.66658,0,0,1-8.38867-.93164,25.284,25.284,0,0,1-7.27881-3.15137,14.658,14.658,0,0,1-5.54834-6.6582,26.06309,26.06309,0,0,1-1.99707-10.74024q0-10.74024,5.94727-15.93457a21.17189,21.17189,0,0,1,14.4248-5.19238,19.0761,19.0761,0,0,1,14.11426,5.68066Q227.7268,20.35206,227.72754,32.95605Zm-26.89649-1.77539H215.2998a52.788,52.788,0,0,0-1.731-14.291q-1.73071-6.12451-5.54785-6.125-3.8174,0-5.50342,5.90332a49.36,49.36,0,0,0-1.68653,13.53711Z"/><path class="cls-2" d="M273.44287,32.95605h-26.8081q.88623,15.6255,12.16113,15.62305a20.24,20.24,0,0,0,6.87988-1.41992A11.31788,11.31788,0,0,0,271.3125,43.165l1.24268.88769a14.23484,14.23484,0,0,1-6.65772,5.41407,22.54427,22.54427,0,0,1-9.36475,2.13086A34.66658,34.66658,0,0,1,248.144,50.666a25.28411,25.28411,0,0,1-7.27881-3.15137,14.658,14.658,0,0,1-5.54834-6.6582,26.06309,26.06309,0,0,1-1.99707-10.74024q0-10.74024,5.94727-15.93457a21.17191,21.17191,0,0,1,14.4248-5.19238,19.0761,19.0761,0,0,1,14.11426,5.68066Q273.44215,20.35206,273.44287,32.95605Zm-26.89648-1.77539h14.46875a52.78755,52.78755,0,0,0-1.731-14.291q-1.73071-6.12451-5.54785-6.125-3.81738,0-5.50342,5.90332a49.36007,49.36007,0,0,0-1.68652,13.53711Z"/><path class="cls-2" d="M295.90088,13.96q3.01685-5.14746,10.82959-5.14844a17.02184,17.02184,0,0,1,13.04883,5.68164q5.23682,5.68067,5.2373,16.06641,0,10.38575-5.14844,16.24414a16.063,16.063,0,0,1-12.51611,5.85938,15.80578,15.80578,0,0,1-6.835-1.50977,9.281,9.281,0,0,1-4.61621-4.52637V67.57617h4.43848v1.77539H282.58594V11.65234h-4.43848V9.877h17.75342Zm0,15.35742V43.96387q2.39649,4.793,6.2583,4.793,3.86133,0,6.61328-4.43848,2.75025-4.437,2.75147-14.24707,0-9.80713-2.13038-13.75879a6.92718,6.92718,0,0,0-6.48-3.9502q-4.35059,0-5.68115,3.55079Q295.90089,19.46386,295.90088,29.31738Z"/><path class="cls-2" d="M248.98828,135.07715h-20.4165v-1.77539h3.55078V114.57227L216.23291,87.14258h-4.61572V85.36719h24.855v1.77539h-4.34961l12.42724,22.36914,11.54-22.36914h-7.10156V85.36719h15.53418v1.77539h-6.21338L245.4375,112.1748v21.127h3.55078Z"/><path class="cls-2" d="M290.17627,135.96484a23.732,23.732,0,0,1-15.26807-5.5039q-6.83642-5.502-6.835-15.623a22.54163,22.54163,0,0,1,1.99707-9.67578,17.47635,17.47635,0,0,1,5.32617-6.74609,25.5319,25.5319,0,0,1,7.146-3.77247,24.30212,24.30212,0,0,1,7.81152-1.2871,24.70937,24.70937,0,0,1,7.856,1.2871A25.38041,25.38041,0,0,1,305.3999,98.416a17.85906,17.85906,0,0,1,5.37061,6.74609,21.91881,21.91881,0,0,1,2.0415,9.58691,21.34049,21.34049,0,0,1-2.0415,9.498,17.80356,17.80356,0,0,1-5.415,6.6582A24.66938,24.66938,0,0,1,290.17627,135.96484Zm-6.56885-6.25781a6.84535,6.84535,0,0,0,6.74658,4.48242,7.00945,7.00945,0,0,0,6.835-4.52734q2.04126-4.52637,2.04151-14.957,0-10.42969-2.04151-15.002a7.00994,7.00994,0,0,0-6.835-4.57128,6.84629,6.84629,0,0,0-6.74658,4.57128q-1.95336,4.57325-1.95263,15.0459Q281.65479,125.22412,283.60742,129.707Z"/><path class="cls-2" d="M349.65039,135.07715v-4.70508a12.70257,12.70257,0,0,1-5.28174,4.03906,18.474,18.474,0,0,1-7.76758,1.64258q-15.80127,0-15.80029-17.13183V96.01953H316.3623V94.24414h17.75342V120.874q0,6.3047,1.86426,8.96582a6.37465,6.37465,0,0,0,5.59229,2.66309q4.9702,0,8.07812-5.32617V96.01953h-4.43848V94.24414h17.75342v39.05762h4.43848v1.77539Z"/><path class="cls-2" d="M395.80859,135.07715H373.6167v-1.77539h4.43848V96.01953H373.6167V94.24414h17.75342v10.56348a16.53379,16.53379,0,0,1,2.88476-7.10157,10.11817,10.11817,0,0,1,4.61621-3.63964,14.74045,14.74045,0,0,1,4.88233-.8877,12.4156,12.4156,0,0,1,4.52685.84375,5.79318,5.79318,0,0,1,3.24024,3.37305,6.53057,6.53057,0,0,1,.08887,5.05957,6.20352,6.20352,0,0,1-3.418,3.59472,5.69959,5.69959,0,0,1-4.48243.26661,5.87767,5.87767,0,0,1-2.92968-2.17481,9.8799,9.8799,0,0,1-1.24268-2.61816q-.88842-3.28419-2.39648-3.28516-1.6875,0-3.72852,5.81445a36.82857,36.82857,0,0,0-2.0415,12.29493v16.9541h4.43847Z"/><path class="cls-2" d="M23.19189,208.50879H1V206.7334H5.43848V160.57422H1v-1.77539H23.19189a30.88086,30.88086,0,0,1,11.85059,2.1748,23.83012,23.83012,0,0,1,8.56592,5.72559,24.22666,24.22666,0,0,1,6.65771,16.68848q0,12.605-6.65771,18.86328Q36.95068,208.50879,23.19189,208.50879Zm-4.43847-1.77539q9.58667,0,13.84765-5.19238,4.26123-5.19435,4.26075-16.95508,0-11.76123-4.61573-17.88672-4.61645-6.12452-13.49267-6.125Z"/><path class="cls-2" d="M95.27051,208.28711a22.44551,22.44551,0,0,1-5.77.665q-7.27954,0-9.14307-4.34961-4.43994,4.61718-13.58154,4.61621a13.42432,13.42432,0,0,1-8.0332-2.26367,7.71817,7.71817,0,0,1-3.15137-6.70215,10.56223,10.56223,0,0,1,4.61572-9.18652q4.615-3.24024,16.15576-4.57227l3.55078-.44336v-4.34961q0-7.72266-1.1538-10.38574-1.155-2.66308-4.57178-2.66309-3.41821,0-4.394.93164a2.15061,2.15061,0,0,0-.71,2.13086q.26587,1.19824.8877,3.15137a10.96218,10.96218,0,0,1,.62109,3.10645,6.517,6.517,0,0,1-6.52441,6.56933,6.42939,6.42939,0,0,1-4.66016-1.90918,6.26386,6.26386,0,0,1-1.95263-4.66015q0-4.52637,4.66015-7.76758,4.66041-3.23877,13.93653-3.23926,9.27465,0,13.22607,3.63965,3.94922,3.64014,3.9502,12.87109V199.4541q0,4.70655,1.15429,5.90332,1.1521,1.19825,4.26074.48828v.8877A7.79268,7.79268,0,0,1,95.27051,208.28711Zm-24.855-4.61621a6.90978,6.90978,0,0,0,4.749,1.81933,5.90934,5.90934,0,0,0,4.749-2.66211V187.7373l-3.1958.44336a10.94373,10.94373,0,0,0-6.61279,3.10743q-2.53051,2.57519-2.1748,7.19043A8.06981,8.06981,0,0,0,70.41553,203.6709Z"/><path class="cls-2" d="M126.16113,208.50879H103.96924V206.7334h4.43847V169.45117h-4.43847v-1.77539h17.75342v10.56348a16.5337,16.5337,0,0,1,2.88476-7.10156,10.11813,10.11813,0,0,1,4.61621-3.63965,14.74045,14.74045,0,0,1,4.88233-.8877,12.4156,12.4156,0,0,1,4.52685.84375,5.79318,5.79318,0,0,1,3.24024,3.373,6.53057,6.53057,0,0,1,.08886,5.05957,6.20352,6.20352,0,0,1-3.418,3.59473,5.69963,5.69963,0,0,1-4.48243.2666,5.87762,5.87762,0,0,1-2.92968-2.17481,9.8799,9.8799,0,0,1-1.24268-2.61816q-.88842-3.28419-2.39648-3.28516-1.6875,0-3.72852,5.81446a36.82846,36.82846,0,0,0-2.0415,12.29492v16.9541h4.43847Z"/><path class="cls-2" d="M164.59619,206.7334h4.43848v1.77539h-22.1919V206.7334h4.43848V150.80957h-4.43848v-1.77539h17.75342Z"/><path class="cls-2" d="M193.00146,206.7334h4.43848v1.77539H175.24805V206.7334h4.43847V169.45117h-3.55078v-1.77539h16.86572Zm.79883-50.81934a7.72733,7.72733,0,0,1-7.76709,7.7666,7.63667,7.63667,0,0,1-5.54785-2.26269,7.4162,7.4162,0,0,1-2.3081-5.50391,7.88132,7.88132,0,0,1,7.856-7.85644,7.42181,7.42181,0,0,1,5.50342,2.30859A7.64037,7.64037,0,0,1,193.80029,155.91406Z"/><path class="cls-2" d="M250.25586,206.7334h4.43848v1.77539h-22.1919V206.7334h4.438V181.87891q0-6.30177-1.86377-8.96582a6.37465,6.37465,0,0,0-5.59228-2.66309q-5.06031,0-8.07813,5.32617V206.7334h4.43848v1.77539h-22.1919V206.7334h4.43848V169.45117h-4.43848v-1.77539h17.75342V172.292a13.09891,13.09891,0,0,1,5.28174-3.95019,18.46693,18.46693,0,0,1,7.76709-1.64258q15.79906,0,15.80078,17.13183Z"/><path class="cls-2" d="M271.73633,200.25293q0,2.4873,3.1958,2.84082H290.2002q7.89917,0,11.00683,3.37305a9.1558,9.1558,0,0,1,2.17481,8.34472q-.93165,4.97022-6.08057,9.14258-5.14893,4.17188-14.20264,4.17188-16.60034,0-21.3042-4.88184a5.66346,5.66346,0,0,1-1.50927-4.57129,6.66992,6.66992,0,0,1,1.95312-4.26074,9.02428,9.02428,0,0,1,3.8169-2.26367,7.47629,7.47629,0,0,1-2.84034-5.94727,10.06143,10.06143,0,0,1,2.17481-6.34765,17.954,17.954,0,0,1,5.01514-4.48243q-10.20924-3.728-10.2085-13.40429,0-7.18945,6.61328-11.13965a28.60539,28.60539,0,0,1,14.95752-3.9502,26.77906,26.77906,0,0,1,7.98926,1.24219,10.70357,10.70357,0,0,1-2.042-6.56836,8.45707,8.45707,0,0,1,2.61865-6.34668,9.07484,9.07484,0,0,1,6.56885-2.53027q3.94922,0,5.94726,2.08594a6.58689,6.58689,0,0,1,1.99756,4.66015,6.37042,6.37042,0,0,1-1.55371,4.34961,5.543,5.543,0,0,1-9.63086-3.32812,6.48579,6.48579,0,0,1,.66553-3.01856,7.39608,7.39608,0,0,0,.666-1.46484q-.26659-1.418-1.77539-.79883a5.61972,5.61972,0,0,0-2.61865,2.53027,8.57744,8.57744,0,0,0-1.10986,4.39356,9.00165,9.00165,0,0,0,4.34961,7.81152q7.63329,4.26123,7.63427,11.80664a12.54771,12.54771,0,0,1-6.30273,11.40625,27.987,27.987,0,0,1-14.91309,3.86133,27.57463,27.57463,0,0,1-7.36767-.8877A8.06759,8.06759,0,0,0,271.73633,200.25293Zm17.93115,14.38086H274.75439a15.58236,15.58236,0,0,1-7.18994-1.50879q-1.24439,6.39111,3.23975,9.80859,4.48169,3.416,12.29443,3.418,7.80982,0,12.96-3.90625,2.39649-1.77686,2.66309-3.55078.26659-1.77686-2.0415-3.01758Q294.37084,214.63185,289.66748,214.63379Zm-1.50928-32.88867q0-7.58935-1.77539-10.34082a5.87847,5.87847,0,0,0-5.28174-2.752,5.44291,5.44291,0,0,0-5.104,2.7959q-1.59741,2.79639-1.59766,10.25293,0,7.45606,1.68653,10.47461a5.48517,5.48517,0,0,0,5.104,3.01758,5.71529,5.71529,0,0,0,5.19287-2.92871Q288.15747,189.335,288.1582,181.74512Z"/><path class="cls-2" d="M329.96777,207.79883q9.23145,0,9.23194-5.05957,0-2.84034-3.1958-4.66114a31.25478,31.25478,0,0,0-7.72266-2.97363q-4.52711-1.15137-8.92139-2.66308a16.68428,16.68428,0,0,1-7.27881-4.793q-2.88573-3.28272-2.35253-8.61035A11.9242,11.9242,0,0,1,315.188,170.25a20.62574,20.62574,0,0,1,12.16113-3.46191q7.23414,0,11.67285,2.30761,4.43775,2.31006,4.97119,6.21387a6.93615,6.93615,0,0,1-.75488,4.43848,3.99579,3.99579,0,0,1-3.63916,2.13086,5.81683,5.81683,0,0,1-4.17236-1.332,3.96961,3.96961,0,0,1-1.55322-3.28418,5.19421,5.19421,0,0,1,1.42041-3.32911,4.103,4.103,0,0,0,1.33154-2.35254q0-1.50732-2.88526-2.26269a26.436,26.436,0,0,0-6.65722-.75488,10.48873,10.48873,0,0,0-6.16944,1.68652,4.974,4.974,0,0,0-2.397,4.17188q0,2.48583,2.97363,4.26074a27.67739,27.67739,0,0,0,7.23487,2.88476q4.26049,1.11181,8.47705,2.48633a17.61184,17.61184,0,0,1,7.19043,4.39356,10.43293,10.43293,0,0,1,2.97363,7.63378,12.21022,12.21022,0,0,1-4.34961,9.80957q-4.35058,3.68409-13.13769,3.6836-8.7876,0-14.24707-2.66309t-5.9917-6.835a6.75443,6.75443,0,0,1,.79882-4.43847,4.06313,4.06313,0,0,1,3.63916-2.13086,5.76557,5.76557,0,0,1,4.12793,1.332,3.97638,3.97638,0,0,1,1.55323,3.28418,5.20127,5.20127,0,0,1-1.41992,3.3291,4.104,4.104,0,0,0-1.33155,2.35156q0,1.77686,4.12744,2.88574A33.88447,33.88447,0,0,0,329.96777,207.79883Z"/></svg>